<svg version="1.1" viewBox="0.0 0.0 960.0 540.0" fill="none" stroke="none" stroke-linecap="square" stroke-miterlimit="10" xmlns:xlink="http://www.w3.org/1999/xlink" xmlns="http://www.w3.org/2000/svg"><clipPath id="p19.0"><path d="m0 0l960.0 0l0 540.0l-960.0 0l0 -540.0z" clip-rule="nonzero"/></clipPath><g clip-path="url(#p19.0)"><path fill="#000000" fill-opacity="0.0" d="m0 0l960.0 0l0 540.0l-960.0 0z" fill-rule="evenodd"/><path fill="#ffac1a" d="m122.55677 603.1062c0 0 22.778023 -45.359375 -4.6285324 -82.925476c-22.383675 -30.756897 -63.647957 -26.02948 -80.726364 -54.657166c-16.981274 -28.607178 4.08033 -63.429016 -42.181953 -73.78302l-37.223427 176.64703z" fill-rule="evenodd"/><path fill="#556fde" d="m809.3595 -4.9135985c-0.6340332 10.015366 7.2510376 19.979883 35.446228 24.715473c41.119995 7.0110073 47.51111 60.208633 89.59448 71.89626c44.759094 12.490021 69.206726 -7.266823 69.206726 -7.266823l5.7177734 -90.32218l-194.85632 -12.335234c-2.7365112 4.1160154 -4.8182983 8.721854 -5.1088867 13.312504z" fill-rule="evenodd"/><path fill="#000000" fill-opacity="0.0" d="m164.76115 273.55118l180.72441 0l0 37.07086l-180.72441 0z" fill-rule="evenodd"/><path fill="#000000" d="m203.02205 305.5912l-4.109375 0l-6.859375 -10.390625l0 10.390625l-4.109375 0l0 -16.84375l4.109375 0l6.859375 10.4375l0 -10.4375l4.109375 0l0 16.84375zm2.157318 -6.71875q0 -2.0625 0.78125 -3.625q0.78125 -1.5625 2.125 -2.390625q1.34375 -0.84375 3.0 -0.84375q1.40625 0 2.46875 0.578125q1.078125 0.5625 1.65625 1.5l0 -1.890625l4.109375 0l0 13.390625l-4.109375 0l0 -1.890625q-0.59375 0.9375 -1.671875 1.515625q-1.0625 0.5625 -2.484375 0.5625q-1.625 0 -2.96875 -0.84375q-1.34375 -0.859375 -2.125 -2.421875q-0.78125 -1.578125 -0.78125 -3.640625zm10.03125 0.015625q0 -1.53125 -0.859375 -2.421875q-0.84375 -0.890625 -2.0625 -0.890625q-1.234375 0 -2.09375 0.890625q-0.84375 0.875 -0.84375 2.40625q0 1.53125 0.84375 2.4375q0.859375 0.890625 2.09375 0.890625q1.21875 0 2.0625 -0.875q0.859375 -0.890625 0.859375 -2.4375zm13.108459 2.859375l2.90625 -9.546875l4.359375 0l-4.75 13.390625l-5.0625 0l-4.75 -13.390625l4.390625 0l2.90625 9.546875zm11.055206 -10.9375q-1.078125 0 -1.765625 -0.640625q-0.671875 -0.640625 -0.671875 -1.5625q0 -0.96875 0.671875 -1.59375q0.6875 -0.640625 1.765625 -0.640625q1.0625 0 1.734375 0.640625q0.6875 0.625 0.6875 1.59375q0 0.921875 -0.6875 1.5625q-0.671875 0.640625 -1.734375 0.640625zm2.046875 1.390625l0 13.390625l-4.109375 0l0 -13.390625l4.109375 0zm8.064362 -0.1875q1.40625 0 2.46875 0.578125q1.078125 0.5625 1.65625 1.5l0 -1.890625l4.1093903 0l0 13.359375q0 1.859375 -0.734375 3.359375q-0.734375 1.5 -2.2343903 2.375q-1.5 0.890625 -3.734375 0.890625q-2.96875 0 -4.828125 -1.40625q-1.84375 -1.390625 -2.109375 -3.796875l4.0625 0q0.1875 0.765625 0.90625 1.203125q0.71875 0.453125 1.78125 0.453125q1.265625 0 2.015625 -0.734375q0.765625 -0.734375 0.765625 -2.34375l0 -1.890625q-0.59375 0.9375 -1.65625 1.53125q-1.0625 0.578125 -2.46875 0.578125q-1.65625 0 -3.0 -0.84375q-1.34375 -0.859375 -2.125 -2.421875q-0.78125 -1.578125 -0.78125 -3.640625q0 -2.0625 0.78125 -3.625q0.78125 -1.5625 2.125 -2.390625q1.34375 -0.84375 3.0 -0.84375zm4.125 6.875q0 -1.53125 -0.859375 -2.421875q-0.84375 -0.890625 -2.0625 -0.890625q-1.234375 0 -2.09375 0.890625q-0.84375 0.875 -0.84375 2.40625q0 1.53125 0.84375 2.4375q0.859375 0.890625 2.09375 0.890625q1.21875 0 2.0625 -0.875q0.859375 -0.890625 0.859375 -2.4375zm6.2647247 -0.015625q0 -2.0625 0.78125 -3.625q0.78125 -1.5625 2.125 -2.390625q1.34375 -0.84375 3.0 -0.84375q1.40625 0 2.46875 0.578125q1.078125 0.5625 1.65625 1.5l0 -1.890625l4.109375 0l0 13.390625l-4.109375 0l0 -1.890625q-0.59375 0.9375 -1.671875 1.515625q-1.0625 0.5625 -2.484375 0.5625q-1.625 0 -2.96875 -0.84375q-1.34375 -0.859375 -2.125 -2.421875q-0.78125 -1.578125 -0.78125 -3.640625zm10.03125 0.015625q0 -1.53125 -0.859375 -2.421875q-0.84375 -0.890625 -2.0625 -0.890625q-1.234375 0 -2.09375 0.890625q-0.84375 0.875 -0.84375 2.40625q0 1.53125 0.84375 2.4375q0.859375 0.890625 2.09375 0.890625q1.21875 0 2.0625 -0.875q0.859375 -0.890625 0.859375 -2.4375zm14.545959 3.21875l0 3.484375l-2.09375 0q-2.234375 0 -3.484375 -1.09375q-1.234375 -1.09375 -1.234375 -3.5625l0 -5.328125l-1.640625 0l0 -3.40625l1.640625 0l0 -3.265625l4.09375 0l0 3.265625l2.6875 0l0 3.40625l-2.6875 0l0 5.375q0 0.59375 0.28125 0.859375q0.296875 0.265625 0.96875 0.265625l1.46875 0zm4.3377075 -11.296875q-1.078125 0 -1.765625 -0.640625q-0.671875 -0.640625 -0.671875 -1.5625q0 -0.96875 0.671875 -1.59375q0.6875 -0.640625 1.765625 -0.640625q1.0625 0 1.734375 0.640625q0.6875 0.625 0.6875 1.59375q0 0.921875 -0.6875 1.5625q-0.671875 0.640625 -1.734375 0.640625zm2.046875 1.390625l0 13.390625l-4.109375 0l0 -13.390625l4.109375 0zm9.064362 13.578125q-1.96875 0 -3.546875 -0.828125q-1.5625 -0.84375 -2.46875 -2.40625q-0.890625 -1.5625 -0.890625 -3.65625q0 -2.0625 0.90625 -3.625q0.921875 -1.578125 2.5 -2.40625q1.578125 -0.84375 3.546875 -0.84375q1.96875 0 3.546875 0.84375q1.59375 0.828125 2.5 2.40625q0.921875 1.5625 0.921875 3.625q0 2.078125 -0.921875 3.65625q-0.921875 1.5625 -2.53125 2.40625q-1.59375 0.828125 -3.5625 0.828125zm0 -3.546875q1.1875 0 2.015625 -0.859375q0.828125 -0.875 0.828125 -2.484375q0 -1.59375 -0.8125 -2.453125q-0.796875 -0.875 -1.984375 -0.875q-1.1875 0 -1.984375 0.859375q-0.796875 0.84375 -0.796875 2.46875q0 1.609375 0.78125 2.484375q0.78125 0.859375 1.953125 0.859375zm17.350464 -10.171875q2.359375 0 3.765625 1.53125q1.40625 1.515625 1.40625 4.171875l0 7.828125l-4.078125 0l0 -7.265625q0 -1.34375 -0.703125 -2.09375q-0.6875 -0.75 -1.875 -0.75q-1.171875 0 -1.875 0.75q-0.6875 0.75 -0.6875 2.09375l0 7.265625l-4.109375 0l0 -13.390625l4.109375 0l0 1.78125q0.625 -0.890625 1.671875 -1.40625q1.0625 -0.515625 2.375 -0.515625z" fill-rule="nonzero"/><path fill="#000000" d="m239.43657 317.54742l0 3.28125l-6.859375 0l0 3.546875l5.140625 0l0 3.203125l-5.140625 0l0 6.8125l-4.109375 0l0 -16.84375l10.96875 0zm6.268585 -0.921875l0 17.765625l-4.109375 0l0 -17.765625l4.109375 0zm9.064362 17.953125q-1.96875 0 -3.546875 -0.828125q-1.5625 -0.84375 -2.46875 -2.40625q-0.890625 -1.5625 -0.890625 -3.65625q0 -2.0625 0.90625 -3.625q0.921875 -1.578125 2.5 -2.40625q1.578125 -0.84375 3.546875 -0.84375q1.9687653 0 3.5468903 0.84375q1.59375 0.828125 2.5 2.40625q0.921875 1.5625 0.921875 3.625q0 2.078125 -0.921875 3.65625q-0.921875 1.5625 -2.53125 2.40625q-1.59375 0.828125 -3.5625153 0.828125zm0 -3.546875q1.1875 0 2.0156403 -0.859375q0.828125 -0.875 0.828125 -2.484375q0 -1.59375 -0.8125 -2.453125q-0.796875 -0.875 -1.9843903 -0.875q-1.1875 0 -1.984375 0.859375q-0.796875 0.84375 -0.796875 2.46875q0 1.609375 0.78125 2.484375q0.78125 0.859375 1.953125 0.859375zm28.428574 -10.03125l-3.625 13.390625l-4.546875 0l-2.109375 -8.6875l-2.1875 8.6875l-4.5 0l-3.65625 -13.390625l4.109375 0l1.890625 9.578125l2.265625 -9.578125l4.34375 0l2.265625 9.53125l1.875 -9.53125l3.875 0z" fill-rule="nonzero"/><path fill="#000000" fill-opacity="0.0" d="m389.63254 273.55118l180.7244 0l0 37.07086l-180.7244 0z" fill-rule="evenodd"/><path fill="#000000" d="m409.23273 288.74744l0 16.84375l-4.109375 0l0 -16.84375l4.109375 0zm11.126862 3.3125q2.359375 0 3.765625 1.53125q1.40625 1.515625 1.40625 4.171875l0 7.828125l-4.078125 0l0 -7.265625q0 -1.34375 -0.703125 -2.09375q-0.6875 -0.75 -1.875 -0.75q-1.171875 0 -1.875 0.75q-0.6875 0.75 -0.6875 2.09375l0 7.265625l-4.109375 0l0 -13.390625l4.109375 0l0 1.78125q0.625 -0.890625 1.671875 -1.40625q1.0625 -0.515625 2.375 -0.515625zm15.488434 10.046875l0 3.484375l-2.09375 0q-2.234375 0 -3.484375 -1.09375q-1.234375 -1.09375 -1.234375 -3.5625l0 -5.328125l-1.640625 0l0 -3.40625l1.640625 0l0 -3.265625l4.09375 0l0 3.265625l2.6875 0l0 3.40625l-2.6875 0l0 5.375q0 0.59375 0.28125 0.859375q0.296875 0.265625 0.96875 0.265625l1.46875 0zm14.900238 -3.421875q0 0.5625 -0.0625 1.1875l-9.296875 0q0.09375 1.25 0.796875 1.921875q0.71875 0.65625 1.75 0.65625q1.53125 0 2.140625 -1.296875l4.359375 0q-0.328125 1.3125 -1.203125 2.375q-0.875 1.046875 -2.203125 1.65625q-1.3125 0.59375 -2.953125 0.59375q-1.96875 0 -3.5 -0.828125q-1.53125 -0.84375 -2.40625 -2.40625q-0.859375 -1.5625 -0.859375 -3.65625q0 -2.078125 0.84375 -3.640625q0.859375 -1.5625 2.390625 -2.390625q1.546875 -0.84375 3.53125 -0.84375q1.953125 0 3.453125 0.8125q1.515625 0.8125 2.359375 2.328125q0.859375 1.515625 0.859375 3.53125zm-4.203125 -1.078125q0 -1.0625 -0.71875 -1.6875q-0.71875 -0.625 -1.796875 -0.625q-1.03125 0 -1.75 0.609375q-0.703125 0.59375 -0.859375 1.703125l5.125 0zm10.471436 -3.171875q0.71875 -1.109375 1.796875 -1.734375q1.078125 -0.640625 2.40625 -0.640625l0 4.34375l-1.140625 0q-1.53125 0 -2.296875 0.65625q-0.765625 0.65625 -0.765625 2.3125l0 6.21875l-4.109375 0l0 -13.390625l4.109375 0l0 2.234375zm5.3500977 4.4375q0 -2.0625 0.78125 -3.625q0.78125 -1.5625 2.125 -2.390625q1.34375 -0.84375 3.0 -0.84375q1.40625 0 2.46875 0.578125q1.078125 0.5625 1.65625 1.5l0 -1.890625l4.109375 0l0 13.390625l-4.109375 0l0 -1.890625q-0.59375 0.9375 -1.671875 1.515625q-1.0625 0.5625 -2.484375 0.5625q-1.625 0 -2.96875 -0.84375q-1.34375 -0.859375 -2.125 -2.421875q-0.78125 -1.578125 -0.78125 -3.640625zm10.03125 0.015625q0 -1.53125 -0.859375 -2.421875q-0.84375 -0.890625 -2.0625 -0.890625q-1.234375 0 -2.09375 0.890625q-0.84375 0.875 -0.84375 2.40625q0 1.53125 0.84375 2.4375q0.859375 0.890625 2.09375 0.890625q1.21875 0 2.0625 -0.875q0.859375 -0.890625 0.859375 -2.4375zm6.2647095 0q0 -2.078125 0.84375 -3.640625q0.859375 -1.5625 2.375 -2.390625q1.53125 -0.84375 3.5 -0.84375q2.515625 0 4.203125 1.328125q1.703125 1.3125 2.234375 3.703125l-4.375 0q-0.546875 -1.53125 -2.140625 -1.53125q-1.125 0 -1.796875 0.875q-0.671875 0.875 -0.671875 2.5q0 1.640625 0.671875 2.515625q0.671875 0.875 1.796875 0.875q1.59375 0 2.140625 -1.53125l4.375 0q-0.53125 2.34375 -2.234375 3.6875q-1.703125 1.34375 -4.203125 1.34375q-1.96875 0 -3.5 -0.828125q-1.515625 -0.84375 -2.375 -2.40625q-0.84375 -1.5625 -0.84375 -3.65625zm22.801208 3.21875l0 3.484375l-2.09375 0q-2.234375 0 -3.484375 -1.09375q-1.234375 -1.09375 -1.234375 -3.5625l0 -5.328125l-1.640625 0l0 -3.40625l1.640625 0l0 -3.265625l4.09375 0l0 3.265625l2.6875 0l0 3.40625l-2.6875 0l0 5.375q0 0.59375 0.28125 0.859375q0.296875 0.265625 0.96875 0.265625l1.46875 0zm4.337738 -11.296875q-1.078125 0 -1.765625 -0.640625q-0.671875 -0.640625 -0.671875 -1.5625q0 -0.96875 0.671875 -1.59375q0.6875 -0.640625 1.765625 -0.640625q1.0625 0 1.734375 0.640625q0.6875 0.625 0.6875 1.59375q0 0.921875 -0.6875 1.5625q-0.671875 0.640625 -1.734375 0.640625zm2.046875 1.390625l0 13.390625l-4.109375 0l0 -13.390625l4.109375 0zm9.001831 9.546875l2.90625 -9.546875l4.359375 0l-4.75 13.390625l-5.0625 0l-4.7499695 -13.390625l4.3905945 0l2.90625 9.546875zm11.055237 -10.9375q-1.078125 0 -1.765625 -0.640625q-0.671875 -0.640625 -0.671875 -1.5625q0 -0.96875 0.671875 -1.59375q0.6875 -0.640625 1.765625 -0.640625q1.0625 0 1.734375 0.640625q0.6875 0.625 0.6875 1.59375q0 0.921875 -0.6875 1.5625q-0.671875 0.640625 -1.734375 0.640625zm2.046875 1.390625l0 13.390625l-4.109375 0l0 -13.390625l4.109375 0zm10.439331 9.90625l0 3.484375l-2.09375 0q-2.234375 0 -3.484375 -1.09375q-1.234375 -1.09375 -1.234375 -3.5625l0 -5.328125l-1.640625 0l0 -3.40625l1.640625 0l0 -3.265625l4.09375 0l0 3.265625l2.6875 0l0 3.40625l-2.6875 0l0 5.375q0 0.59375 0.28125 0.859375q0.296875 0.265625 0.96875 0.265625l1.46875 0zm15.962769 -9.90625l-8.40625 19.75l-4.40625 0l3.0625 -6.8125l-5.453125 -12.9375l4.59375 0l3.09375 8.375l3.078125 -8.375l4.4375 0z" fill-rule="nonzero"/><path fill="#000000" fill-opacity="0.0" d="m614.50397 273.55118l170.99207 0l0 37.07086l-170.99207 0z" fill-rule="evenodd"/><path fill="#000000" d="m643.79395 288.74744l0 16.84375l-4.109375 0l0 -16.84375l4.109375 0zm11.126831 3.3125q2.359375 0 3.765625 1.53125q1.40625 1.515625 1.40625 4.171875l0 7.828125l-4.078125 0l0 -7.265625q0 -1.34375 -0.703125 -2.09375q-0.6875 -0.75 -1.875 -0.75q-1.171875 0 -1.875 0.75q-0.6875 0.75 -0.6875 2.09375l0 7.265625l-4.109375 0l0 -13.390625l4.109375 0l0 1.78125q0.625 -0.890625 1.671875 -1.40625q1.0625 -0.515625 2.375 -0.515625zm7.2072144 6.828125q0 -2.078125 0.84375 -3.640625q0.859375 -1.5625 2.375 -2.390625q1.53125 -0.84375 3.5 -0.84375q2.515625 0 4.203125 1.328125q1.703125 1.3125 2.234375 3.703125l-4.375 0q-0.546875 -1.53125 -2.140625 -1.53125q-1.125 0 -1.796875 0.875q-0.671875 0.875 -0.671875 2.5q0 1.640625 0.671875 2.515625q0.671875 0.875 1.796875 0.875q1.59375 0 2.140625 -1.53125l4.375 0q-0.53125 2.34375 -2.234375 3.6875q-1.703125 1.34375 -4.203125 1.34375q-1.96875 0 -3.5 -0.828125q-1.515625 -0.84375 -2.375 -2.40625q-0.84375 -1.5625 -0.84375 -3.65625zm19.441833 -4.453125q0.71875 -1.109375 1.796875 -1.734375q1.078125 -0.640625 2.40625 -0.640625l0 4.34375l-1.140625 0q-1.53125 0 -2.296875 0.65625q-0.765625 0.65625 -0.765625 2.3125l0 6.21875l-4.109375 0l0 -13.390625l4.109375 0l0 2.234375zm18.787598 4.25q0 0.5625 -0.0625 1.1875l-9.296875 0q0.09375 1.25 0.796875 1.921875q0.71875 0.65625 1.75 0.65625q1.53125 0 2.140625 -1.296875l4.359375 0q-0.328125 1.3125 -1.203125 2.375q-0.875 1.046875 -2.203125 1.65625q-1.3125 0.59375 -2.953125 0.59375q-1.96875 0 -3.5 -0.828125q-1.53125 -0.84375 -2.40625 -2.40625q-0.859375 -1.5625 -0.859375 -3.65625q0 -2.078125 0.84375 -3.640625q0.859375 -1.5625 2.390625 -2.390625q1.546875 -0.84375 3.53125 -0.84375q1.953125 0 3.453125 0.8125q1.515625 0.8125 2.359375 2.328125q0.859375 1.515625 0.859375 3.53125zm-4.203125 -1.078125q0 -1.0625 -0.71875 -1.6875q-0.71875 -0.625 -1.796875 -0.625q-1.03125 0 -1.75 0.609375q-0.703125 0.59375 -0.859375 1.703125l5.125 0zm5.5495605 1.265625q0 -2.0625 0.78125 -3.625q0.78125 -1.5625 2.125 -2.390625q1.34375 -0.84375 3.0 -0.84375q1.40625 0 2.46875 0.578125q1.078125 0.5625 1.65625 1.5l0 -1.890625l4.109375 0l0 13.390625l-4.109375 0l0 -1.890625q-0.59375 0.9375 -1.671875 1.515625q-1.0625 0.5625 -2.484375 0.5625q-1.625 0 -2.96875 -0.84375q-1.34375 -0.859375 -2.125 -2.421875q-0.78125 -1.578125 -0.78125 -3.640625zm10.03125 0.015625q0 -1.53125 -0.859375 -2.421875q-0.84375 -0.890625 -2.0625 -0.890625q-1.234375 0 -2.09375 0.890625q-0.84375 0.875 -0.84375 2.40625q0 1.53125 0.84375 2.4375q0.859375 0.890625 2.09375 0.890625q1.21875 0 2.0625 -0.875q0.859375 -0.890625 0.859375 -2.4375zm12.530334 6.890625q-1.75 0 -3.125 -0.59375q-1.359375 -0.609375 -2.15625 -1.640625q-0.796875 -1.046875 -0.890625 -2.34375l4.0625 0q0.0625 0.6875 0.640625 1.125q0.578125 0.4375 1.421875 0.4375q0.765625 0 1.1875 -0.296875q0.421875 -0.3125 0.421875 -0.78125q0 -0.578125 -0.609375 -0.859375q-0.59375 -0.28125 -1.9375 -0.609375q-1.4375 -0.34375 -2.40625 -0.703125q-0.953125 -0.375 -1.65625 -1.171875q-0.6875 -0.8125 -0.6875 -2.1875q0 -1.140625 0.625 -2.09375q0.640625 -0.953125 1.875 -1.5q1.234375 -0.546875 2.9375 -0.546875q2.53125 0 3.984375 1.25q1.453125 1.234375 1.65625 3.296875l-3.78125 0q-0.09375 -0.6875 -0.609375 -1.09375q-0.515625 -0.40625 -1.359375 -0.40625q-0.71875 0 -1.109375 0.28125q-0.375 0.265625 -0.375 0.75q0 0.578125 0.609375 0.859375q0.609375 0.28125 1.90625 0.578125q1.484375 0.375 2.421875 0.75q0.9375 0.375 1.640625 1.203125q0.71875 0.828125 0.734375 2.21875q0 1.171875 -0.65625 2.109375q-0.65625 0.921875 -1.90625 1.453125q-1.234375 0.515625 -2.859375 0.515625zm20.563843 -7.09375q0 0.5625 -0.0625 1.1875l-9.296875 0q0.09375 1.25 0.796875 1.921875q0.71875 0.65625 1.75 0.65625q1.53125 0 2.140625 -1.296875l4.359375 0q-0.328125 1.3125 -1.203125 2.375q-0.875 1.046875 -2.203125 1.65625q-1.3125 0.59375 -2.953125 0.59375q-1.96875 0 -3.5 -0.828125q-1.53125 -0.84375 -2.40625 -2.40625q-0.859375 -1.5625 -0.859375 -3.65625q0 -2.078125 0.84375 -3.640625q0.859375 -1.5625 2.390625 -2.390625q1.546875 -0.84375 3.53125 -0.84375q1.953125 0 3.453125 0.8125q1.515625 0.8125 2.359375 2.328125q0.859375 1.515625 0.859375 3.53125zm-4.203125 -1.078125q0 -1.0625 -0.71875 -1.6875q-0.71875 -0.625 -1.796875 -0.625q-1.03125 0 -1.75 0.609375q-0.703125 0.59375 -0.859375 1.703125l5.125 0zm5.5496216 1.265625q0 -2.0625 0.78125 -3.625q0.78125 -1.5625 2.125 -2.390625q1.34375 -0.84375 3.0 -0.84375q1.3125 0 2.40625 0.546875q1.09375 0.546875 1.71875 1.484375l0 -6.21875l4.109375 0l0 17.765625l-4.109375 0l0 -1.921875q-0.578125 0.96875 -1.65625 1.546875q-1.0625 0.5625 -2.46875 0.5625q-1.65625 0 -3.0 -0.84375q-1.34375 -0.859375 -2.125 -2.421875q-0.78125 -1.578125 -0.78125 -3.640625zm10.03125 0.015625q0 -1.53125 -0.859375 -2.421875q-0.84375 -0.890625 -2.0625 -0.890625q-1.234375 0 -2.09375 0.890625q-0.84375 0.875 -0.84375 2.40625q0 1.53125 0.84375 2.4375q0.859375 0.890625 2.09375 0.890625q1.21875 0 2.0625 -0.875q0.859375 -0.890625 0.859375 -2.4375z" fill-rule="nonzero"/><path fill="#000000" d="m661.03326 334.56305q-2.375 0 -4.359375 -1.109375q-1.96875 -1.109375 -3.140625 -3.078125q-1.15625 -1.984375 -1.15625 -4.453125q0 -2.46875 1.15625 -4.4375q1.171875 -1.96875 3.140625 -3.078125q1.984375 -1.109375 4.359375 -1.109375q2.375 0 4.359375 1.109375q1.984375 1.109375 3.125 3.078125q1.140625 1.96875 1.140625 4.4375q0 2.46875 -1.15625 4.453125q-1.15625 1.96875 -3.125 3.078125q-1.96875 1.109375 -4.34375 1.109375zm0 -3.75q2.015625 0 3.21875 -1.34375q1.21875 -1.34375 1.21875 -3.546875q0 -2.234375 -1.21875 -3.5625q-1.203125 -1.34375 -3.21875 -1.34375q-2.03125 0 -3.25 1.328125q-1.21875 1.3125 -1.21875 3.578125q0 2.234375 1.21875 3.5625q1.21875 1.328125 3.25 1.328125zm15.004578 -7.921875q0.59375 -0.9375 1.640625 -1.5q1.0625 -0.578125 2.484375 -0.578125q1.65625 0 3.0 0.84375q1.34375 0.828125 2.125 2.390625q0.78125 1.5625 0.78125 3.625q0 2.0625 -0.78125 3.640625q-0.78125 1.5625 -2.125 2.421875q-1.34375 0.84375 -3.0 0.84375q-1.390625 0 -2.46875 -0.5625q-1.0625 -0.578125 -1.65625 -1.5l0 8.265625l-4.109375 0l0 -19.78125l4.109375 0l0 1.890625zm5.859375 4.78125q0 -1.53125 -0.859375 -2.40625q-0.84375 -0.890625 -2.09375 -0.890625q-1.234375 0 -2.09375 0.890625q-0.84375 0.890625 -0.84375 2.421875q0 1.546875 0.84375 2.4375q0.859375 0.875 2.09375 0.875q1.21875 0 2.078125 -0.890625q0.875 -0.90625 0.875 -2.4375zm13.795959 3.234375l0 3.484375l-2.09375 0q-2.234375 0 -3.484375 -1.09375q-1.234375 -1.09375 -1.234375 -3.5625l0 -5.328125l-1.640625 0l0 -3.40625l1.640625 0l0 -3.265625l4.09375 0l0 3.265625l2.6875 0l0 3.40625l-2.6875 0l0 5.375q0 0.59375 0.28125 0.859375q0.296875 0.265625 0.96875 0.265625l1.46875 0zm4.3377075 -11.296875q-1.078125 0 -1.765625 -0.640625q-0.671875 -0.640625 -0.671875 -1.5625q0 -0.96875 0.671875 -1.59375q0.6875 -0.640625 1.765625 -0.640625q1.0625 0 1.734375 0.640625q0.6875 0.625 0.6875 1.59375q0 0.921875 -0.6875 1.5625q-0.671875 0.640625 -1.734375 0.640625zm2.046875 1.390625l0 13.390625l-4.109375 0l0 -13.390625l4.109375 0zm9.064392 13.578125q-1.96875 0 -3.546875 -0.828125q-1.5625 -0.84375 -2.46875 -2.40625q-0.890625 -1.5625 -0.890625 -3.65625q0 -2.0625 0.90625 -3.625q0.921875 -1.578125 2.5 -2.40625q1.578125 -0.84375 3.546875 -0.84375q1.96875 0 3.546875 0.84375q1.59375 0.828125 2.5 2.40625q0.921875 1.5625 0.921875 3.625q0 2.078125 -0.921875 3.65625q-0.921875 1.5625 -2.53125 2.40625q-1.59375 0.828125 -3.5625 0.828125zm0 -3.546875q1.1875 0 2.015625 -0.859375q0.828125 -0.875 0.828125 -2.484375q0 -1.59375 -0.8125 -2.453125q-0.796875 -0.875 -1.984375 -0.875q-1.1875 0 -1.984375 0.859375q-0.796875 0.84375 -0.796875 2.46875q0 1.609375 0.78125 2.484375q0.78125 0.859375 1.953125 0.859375zm17.350403 -10.171875q2.359375 0 3.765625 1.53125q1.40625 1.515625 1.40625 4.171875l0 7.828125l-4.078125 0l0 -7.265625q0 -1.34375 -0.703125 -2.09375q-0.6875 -0.75 -1.875 -0.75q-1.171875 0 -1.875 0.75q-0.6875 0.75 -0.6875 2.09375l0 7.265625l-4.109375 0l0 -13.390625l4.109375 0l0 1.78125q0.625 -0.890625 1.671875 -1.40625q1.0625 -0.515625 2.375 -0.515625zm13.472839 13.71875q-1.75 0 -3.125 -0.59375q-1.359375 -0.609375 -2.15625 -1.640625q-0.796875 -1.046875 -0.890625 -2.34375l4.0625 0q0.0625 0.6875 0.640625 1.125q0.578125 0.4375 1.421875 0.4375q0.765625 0 1.1875 -0.296875q0.421875 -0.3125 0.421875 -0.78125q0 -0.578125 -0.609375 -0.859375q-0.59375 -0.28125 -1.9375 -0.609375q-1.4375 -0.34375 -2.40625 -0.703125q-0.953125 -0.375 -1.65625 -1.171875q-0.6875 -0.8125 -0.6875 -2.1875q0 -1.140625 0.625 -2.09375q0.640625 -0.953125 1.875 -1.5q1.234375 -0.546875 2.9375 -0.546875q2.53125 0 3.984375 1.25q1.453125 1.234375 1.65625 3.296875l-3.78125 0q-0.09375 -0.6875 -0.609375 -1.09375q-0.515625 -0.40625 -1.359375 -0.40625q-0.71875 0 -1.109375 0.28125q-0.375 0.265625 -0.375 0.75q0 0.578125 0.609375 0.859375q0.609375 0.28125 1.90625 0.578125q1.484375 0.375 2.421875 0.75q0.9375 0.375 1.640625 1.203125q0.71875 0.828125 0.734375 2.21875q0 1.171875 -0.65625 2.109375q-0.65625 0.921875 -1.90625 1.453125q-1.234375 0.515625 -2.859375 0.515625z" fill-rule="nonzero"/><path fill="#000000" fill-opacity="0.0" d="m147.5433 60.868767l664.9133 0l0 60.125984l-664.9133 0z" fill-rule="evenodd"/><path fill="#000000" d="m324.94016 80.190636q4.4375 0 7.75 1.765625q3.328125 1.75 5.140625 4.9375q1.828125 3.171875 1.828125 7.328125q0 4.125 -1.828125 7.328125q-1.8125 3.203125 -5.15625 4.96875q-3.328125 1.75 -7.734375 1.75l-10.515625 0l0 -28.078125l10.515625 0zm-0.4375 22.15625q3.875 0 6.03125 -2.109375q2.171875 -2.125 2.171875 -6.015625q0 -3.875 -2.171875 -6.03125q-2.15625 -2.15625 -6.03125 -2.15625l-3.25 0l0 16.3125l3.25 0zm40.03311 -5.59375q0 0.953125 -0.109375 2.0l-15.484375 0q0.15625 2.078125 1.328125 3.1875q1.1875 1.09375 2.90625 1.09375q2.5625 0 3.5625 -2.171875l7.28125 0q-0.5625 2.203125 -2.03125 3.96875q-1.453125 1.75 -3.65625 2.75q-2.1875 1.0 -4.90625 1.0q-3.28125 0 -5.84375 -1.390625q-2.5625 -1.40625 -4.0 -4.0q-1.4375 -2.609375 -1.4375 -6.078125q0 -3.484375 1.40625 -6.078125q1.421875 -2.609375 3.984375 -4.0q2.5625 -1.40625 5.890625 -1.40625q3.234375 0 5.75 1.359375q2.53125 1.359375 3.9375 3.890625q1.421875 2.515625 1.421875 5.875zm-7.0 -1.796875q0 -1.765625 -1.203125 -2.796875q-1.1875 -1.046875 -3.0 -1.046875q-1.71875 0 -2.90625 1.0q-1.171875 1.0 -1.453125 2.84375l8.5625 0zm19.68686 13.625q-2.921875 0 -5.203125 -1.0q-2.28125 -1.0 -3.609375 -2.734375q-1.3125 -1.734375 -1.46875 -3.890625l6.765625 0q0.109375 1.15625 1.0625 1.875q0.96875 0.71875 2.375 0.71875q1.28125 0 1.96875 -0.5q0.703125 -0.5 0.703125 -1.296875q0 -0.96875 -1.0 -1.421875q-1.0 -0.46875 -3.234375 -1.015625q-2.40625 -0.5625 -4.015625 -1.1875q-1.59375 -0.625 -2.75 -1.953125q-1.15625 -1.34375 -1.15625 -3.625q0 -1.921875 1.0625 -3.5q1.0625 -1.578125 3.109375 -2.5q2.0625 -0.921875 4.90625 -0.921875q4.203125 0 6.625 2.078125q2.421875 2.078125 2.78125 5.515625l-6.328125 0q-0.15625 -1.15625 -1.015625 -1.828125q-0.859375 -0.6875 -2.265625 -0.6875q-1.1875 0 -1.828125 0.46875q-0.640625 0.453125 -0.640625 1.25q0 0.96875 1.015625 1.453125q1.015625 0.46875 3.171875 0.953125q2.484375 0.640625 4.046875 1.265625q1.5625 0.609375 2.734375 2.0q1.1875 1.375 1.21875 3.6875q0 1.96875 -1.09375 3.515625q-1.09375 1.53125 -3.15625 2.40625q-2.0625 0.875 -4.78125 0.875zm16.679352 -24.953125q-1.796875 0 -2.9375 -1.0625q-1.140625 -1.0625 -1.140625 -2.609375q0 -1.609375 1.140625 -2.671875q1.140625 -1.0625 2.9375 -1.0625q1.765625 0 2.890625 1.0625q1.140625 1.0625 1.140625 2.671875q0 1.546875 -1.140625 2.609375q-1.125 1.0625 -2.890625 1.0625zm3.390625 2.328125l0 22.3125l-6.828125 0l0 -22.3125l6.828125 0zm13.440582 -0.328125q2.359375 0 4.140625 0.96875q1.78125 0.953125 2.75 2.515625l0 -3.15625l6.84375 0l0 22.265625q0 3.09375 -1.234375 5.59375q-1.21875 2.5 -3.71875 3.96875q-2.5 1.484375 -6.21875 1.484375q-4.953125 0 -8.03125 -2.34375q-3.0780945 -2.34375 -3.5312195 -6.34375l6.7655945 0q0.328125 1.28125 1.515625 2.015625q1.203125 0.75 2.96875 0.75q2.109375 0 3.375 -1.21875q1.265625 -1.21875 1.265625 -3.90625l0 -3.15625q-1.0 1.5625 -2.765625 2.546875q-1.765625 0.96875 -4.125 0.96875q-2.75 0 -5.0 -1.40625q-2.2343445 -1.421875 -3.5312195 -4.046875q-1.296875 -2.625 -1.296875 -6.0625q0 -3.4375 1.296875 -6.03125q1.296875 -2.609375 3.5312195 -4.0q2.25 -1.40625 5.0 -1.40625zm6.890625 11.484375q0 -2.5625 -1.421875 -4.046875q-1.421875 -1.484375 -3.46875 -1.484375q-2.03125 0 -3.453125 1.46875q-1.421875 1.453125 -1.421875 4.015625q0 2.5625 1.421875 4.0625q1.421875 1.5 3.453125 1.5q2.046875 0 3.46875 -1.46875q1.421875 -1.484375 1.421875 -4.046875zm25.394348 -11.40625q3.921875 0 6.265625 2.546875q2.34375 2.53125 2.34375 6.96875l0 13.046875l-6.8125 0l0 -12.125q0 -2.234375 -1.15625 -3.46875q-1.15625 -1.25 -3.125 -1.25q-1.953125 0 -3.125 1.25q-1.15625 1.234375 -1.15625 3.46875l0 12.125l-6.828125 0l0 -22.3125l6.828125 0l0 2.953125q1.046875 -1.484375 2.796875 -2.34375q1.765625 -0.859375 3.96875 -0.859375zm20.674377 8.484375q0 -4.15625 1.796875 -7.421875q1.8125 -3.265625 5.03125 -5.078125q3.21875 -1.828125 7.296875 -1.828125q5.0 0 8.5625 2.640625q3.5625 2.640625 4.765625 7.203125l-7.53125 0q-0.828125 -1.75 -2.375 -2.671875q-1.546875 -0.921875 -3.5 -0.921875q-3.15625 0 -5.125 2.203125q-1.953125 2.1875 -1.953125 5.875q0 3.671875 1.953125 5.875q1.96875 2.203125 5.125 2.203125q1.953125 0 3.5 -0.921875q1.546875 -0.921875 2.375 -2.671875l7.53125 0q-1.203125 4.546875 -4.765625 7.171875q-3.5625 2.625 -8.5625 2.625q-4.078125 0 -7.296875 -1.8125q-3.21875 -1.828125 -5.03125 -5.0625q-1.796875 -3.25 -1.796875 -7.40625zm45.370575 -8.484375q3.84375 0 6.15625 2.546875q2.328125 2.53125 2.328125 6.96875l0 13.046875l-6.8125 0l0 -12.125q0 -2.234375 -1.15625 -3.46875q-1.15625 -1.25 -3.125 -1.25q-1.953125 0 -3.125 1.25q-1.15625 1.234375 -1.15625 3.46875l0 12.125l-6.828125 0l0 -29.59375l6.828125 0l0 10.28125q1.046875 -1.484375 2.84375 -2.359375q1.796875 -0.890625 4.046875 -0.890625zm11.881897 11.359375q0 -3.4375 1.296875 -6.03125q1.296875 -2.609375 3.53125 -4.0q2.25 -1.40625 5.0 -1.40625q2.359375 0 4.140625 0.96875q1.78125 0.953125 2.75 2.515625l0 -3.15625l6.84375 0l0 22.3125l-6.84375 0l0 -3.15625q-1.0 1.5625 -2.78125 2.515625q-1.78125 0.953125 -4.140625 0.953125q-2.71875 0 -4.96875 -1.40625q-2.234375 -1.421875 -3.53125 -4.046875q-1.296875 -2.625 -1.296875 -6.0625zm16.71875 0.046875q0 -2.5625 -1.421875 -4.046875q-1.421875 -1.484375 -3.46875 -1.484375q-2.03125 0 -3.453125 1.46875q-1.421875 1.453125 -1.421875 4.015625q0 2.5625 1.421875 4.0625q1.421875 1.5 3.453125 1.5q2.046875 0 3.46875 -1.46875q1.421875 -1.484375 1.421875 -4.046875zm25.394348 -11.40625q3.921875 0 6.265625 2.546875q2.34375 2.53125 2.34375 6.96875l0 13.046875l-6.8125 0l0 -12.125q0 -2.234375 -1.15625 -3.46875q-1.15625 -1.25 -3.125 -1.25q-1.953125 0 -3.125 1.25q-1.15625 1.234375 -1.15625 3.46875l0 12.125l-6.828125 0l0 -22.3125l6.828125 0l0 2.953125q1.046875 -1.484375 2.796875 -2.34375q1.765625 -0.859375 3.96875 -0.859375zm21.83496 -0.078125q2.359375 0 4.140625 0.96875q1.78125 0.953125 2.75 2.515625l0 -3.15625l6.84375 0l0 22.265625q0 3.09375 -1.234375 5.59375q-1.21875 2.5 -3.71875 3.96875q-2.5 1.484375 -6.21875 1.484375q-4.953125 0 -8.03125 -2.34375q-3.078125 -2.34375 -3.53125 -6.34375l6.765625 0q0.328125 1.28125 1.515625 2.015625q1.203125 0.75 2.96875 0.75q2.109375 0 3.375 -1.21875q1.265625 -1.21875 1.265625 -3.90625l0 -3.15625q-1.0 1.5625 -2.765625 2.546875q-1.765625 0.96875 -4.125 0.96875q-2.75 0 -5.0 -1.40625q-2.234375 -1.421875 -3.53125 -4.046875q-1.296875 -2.625 -1.296875 -6.0625q0 -3.4375 1.296875 -6.03125q1.296875 -2.609375 3.53125 -4.0q2.25 -1.40625 5.0 -1.40625zm6.890625 11.484375q0 -2.5625 -1.421875 -4.046875q-1.421875 -1.484375 -3.46875 -1.484375q-2.03125 0 -3.453125 1.46875q-1.421875 1.453125 -1.421875 4.015625q0 2.5625 1.421875 4.0625q1.421875 1.5 3.453125 1.5q2.046875 0 3.46875 -1.46875q1.421875 -1.484375 1.421875 -4.046875zm32.83185 -0.359375q0 0.953125 -0.109375 2.0l-15.484375 0q0.15625 2.078125 1.328125 3.1875q1.1875 1.09375 2.90625 1.09375q2.5625 0 3.5625 -2.171875l7.28125 0q-0.5625 2.203125 -2.03125 3.96875q-1.453125 1.75 -3.65625 2.75q-2.1875 1.0 -4.90625 1.0q-3.28125 0 -5.84375 -1.390625q-2.5625 -1.40625 -4.0 -4.0q-1.4375 -2.609375 -1.4375 -6.078125q0 -3.484375 1.40625 -6.078125q1.421875 -2.609375 3.984375 -4.0q2.5625 -1.40625 5.890625 -1.40625q3.234375 0 5.75 1.359375q2.53125 1.359375 3.9375 3.890625q1.421875 2.515625 1.421875 5.875zm-7.0 -1.796875q0 -1.765625 -1.203125 -2.796875q-1.1875 -1.046875 -3.0 -1.046875q-1.71875 0 -2.90625 1.0q-1.171875 1.0 -1.453125 2.84375l8.5625 0zm19.686829 13.625q-2.921875 0 -5.203125 -1.0q-2.28125 -1.0 -3.609375 -2.734375q-1.3125 -1.734375 -1.46875 -3.890625l6.765625 0q0.109375 1.15625 1.0625 1.875q0.96875 0.71875 2.375 0.71875q1.28125 0 1.96875 -0.5q0.703125 -0.5 0.703125 -1.296875q0 -0.96875 -1.0 -1.421875q-1.0 -0.46875 -3.234375 -1.015625q-2.40625 -0.5625 -4.015625 -1.1875q-1.59375 -0.625 -2.75 -1.953125q-1.15625 -1.34375 -1.15625 -3.625q0 -1.921875 1.0625 -3.5q1.0625 -1.578125 3.109375 -2.5q2.0625 -0.921875 4.90625 -0.921875q4.203125 0 6.625 2.078125q2.421875 2.078125 2.78125 5.515625l-6.328125 0q-0.15625 -1.15625 -1.015625 -1.828125q-0.859375 -0.6875 -2.265625 -0.6875q-1.1875 0 -1.828125 0.46875q-0.640625 0.453125 -0.640625 1.25q0 0.96875 1.015625 1.453125q1.015625 0.46875 3.171875 0.953125q2.484375 0.640625 4.046875 1.265625q1.5625 0.609375 2.734375 2.0q1.1875 1.375 1.21875 3.6875q0 1.96875 -1.09375 3.515625q-1.09375 1.53125 -3.15625 2.40625q-2.0625 0.875 -4.78125 0.875z" fill-rule="nonzero"/><path fill="#000000" fill-opacity="0.0" d="m182.05249 225.26509l146.14172 0l0 37.070877l-146.14172 0z" fill-rule="evenodd"/><path fill="#ff8b7b" d="m251.252 243.60197l0 -3.8125l6.6562653 0l0 17.51561l-4.2656403 0l0 -13.70311l-2.390625 0z" fill-rule="nonzero"/><path fill="#000000" fill-opacity="0.0" d="m406.92914 225.26509l146.14172 0l0 37.070877l-146.14172 0z" fill-rule="evenodd"/><path fill="#ff8b7b" d="m474.0855 254.02385q0.8125 -0.65625 0.75 -0.609375q2.34375 -1.9375 3.703125 -3.1875q1.359375 -1.25 2.28125 -2.609375q0.9375 -1.375 0.9375 -2.671875q0 -0.984375 -0.453125 -1.53125q-0.453125 -0.5625 -1.359375 -0.5625q-0.921875 0 -1.4375 0.6875q-0.515625 0.6875 -0.515625 1.9375l-3.953125 0q0.046875 -2.046875 0.875 -3.40625q0.828125 -1.375 2.171875 -2.015625q1.359375 -0.65625 3.015625 -0.65625q2.859375 0 4.3125 1.46875q1.453125 1.46875 1.453125 3.8125q0 2.5625 -1.75 4.765625q-1.75 2.203125 -4.46875 4.28125l6.484375 0l0 3.3437347l-12.046875 0l0 -3.0468597z" fill-rule="nonzero"/><path fill="#000000" fill-opacity="0.0" d="m626.92914 225.26509l146.14172 0l0 37.070877l-146.14172 0z" fill-rule="evenodd"/><path fill="#ff8b7b" d="m693.9588 244.72697q0.09375 -2.5625 1.671875 -3.953125q1.59375 -1.390625 4.3125 -1.390625q1.796875 0 3.078125 0.625q1.28125 0.609375 1.9375 1.703125q0.671875 1.078125 0.671875 2.421875q0 1.578125 -0.796875 2.578125q-0.796875 1.0 -1.84375 1.359375l0 0.09375q1.359375 0.453125 2.15625 1.515625q0.796875 1.046875 0.796875 2.703125q0 1.484375 -0.6875 2.625q-0.6875 1.1406097 -2.0 1.7968597q-1.296875 0.640625 -3.09375 0.640625q-2.890625 0 -4.609375 -1.40625q-1.703125 -1.4218597 -1.796875 -4.2812347l3.96875 0q0.03125 1.0625 0.609375 1.671875q0.578125 0.609375 1.671875 0.609375q0.9375 0 1.453125 -0.53125q0.515625 -0.546875 0.515625 -1.4375q0 -1.15625 -0.734375 -1.671875q-0.71875 -0.515625 -2.328125 -0.515625l-0.765625 0l0 -3.328125l0.765625 0q1.21875 0 1.96875 -0.421875q0.765625 -0.421875 0.765625 -1.5q0 -0.859375 -0.484375 -1.34375q-0.484375 -0.484375 -1.3125 -0.484375q-0.921875 0 -1.375 0.5625q-0.4375 0.546875 -0.5 1.359375l-4.015625 0z" fill-rule="nonzero"/><path fill="#263238" d="m103.20085 94.70075c23.743584 0 44.5 13.772537 51.163162 36.43844c4.2109833 14.470306 2.0664673 30.336182 -5.97435 44.720245c-8.118881 14.472931 -21.215622 25.718338 -36.840324 31.645493c-5.9743576 2.265808 -12.10025 3.6613464 -18.304214 4.1840363c-0.15383911 0 -0.22960663 0.08885193 -0.3076706 0.1750946c-0.15383911 0.086242676 -0.15383911 0.26133728 -0.15383911 0.43643188c1.3041611 11.854309 -7.7354355 21.79303 -10.72261 24.670364c0.5372772 -7.6728973 -1.9906921 -18.568115 -9.037308 -26.938782c-0.07576752 -0.086242676 -0.15153503 -0.17248535 -0.22960663 -0.17248535c-17.76923 -4.7955627 -30.787903 -17.347656 -35.768066 -34.347733c-8.653858 -29.902359 10.493008 -64.161224 42.814682 -76.45198c7.5058365 -2.791092 15.395103 -4.272888 23.360146 -4.359123zm-0.07576752 -0.9983139c-7.682625 0 -15.668335 1.4138412 -23.589752 4.398323c-32.858955 12.376999 -52.3112 47.2474 -43.42773 77.758675c5.055931 17.436508 18.306507 30.163696 36.381115 35.131744c7.1223907 8.456924 9.420746 19.788559 8.500023 27.200119c0 0.26133728 0.078071594 0.43643188 0.23190308 0.52267456c0.07576752 0.086242676 0.15154266 0.086242676 0.30537415 0.086242676c0.07577515 0 0.15383911 0 0.22960663 -0.086242676c0.15383911 -0.086242676 13.25058 -11.506729 12.024483 -25.97966c6.1281967 -0.52267456 12.178322 -2.0044708 17.99884 -4.1840363c15.854309 -6.013397 29.180664 -17.347656 37.375305 -32.0793c8.196945 -14.645416 10.341476 -30.947723 6.052429 -45.679367c-6.7435455 -23.089272 -27.908646 -37.089172 -52.081596 -37.089172z" fill-rule="evenodd"/><path fill="#263238" d="m195.95949 15.758208c18.283554 0 33.837082 11.802051 36.67961 29.251625c1.836853 11.506737 -2.144516 23.277428 -10.952225 32.34326c-0.078063965 0.086242676 -0.078063965 0.17248535 -0.15382385 0.26133728c-1.4557037 6.2773514 -0.6888275 12.902283 2.144516 18.568108c-2.7575684 -0.6977768 -10.033798 -3.2249222 -12.483688 -10.113808c0 -0.17247772 -0.15383911 -0.26133728 -0.22961426 -0.26133728c-0.039031982 -0.041809082 -0.078063965 -0.065330505 -0.11480713 -0.065330505c-0.039031982 0 -0.078063965 0.023521423 -0.11709595 0.065330505c-0.07575989 -0.086242676 -0.15153503 -0.086242676 -0.229599 -0.086242676c-3.6759949 1.9182281 -7.581604 3.313774 -11.565277 4.0977936c-3.0239105 0.64811707 -6.054718 0.96956635 -9.041885 0.96956635c-7.4507294 0 -14.62822 -1.9940186 -20.749527 -5.851372c-8.5780945 -5.3182373 -14.171295 -13.6000595 -15.778549 -23.36367c-3.2167816 -20.22499 11.870651 -40.361126 33.699326 -44.89535c3.005539 -0.6219845 5.983536 -0.9199114 8.892639 -0.9199114zm0.06889343 -0.99831295c-2.9825897 0 -6.0340576 0.31099224 -9.115372 0.95911217c-22.363647 4.706707 -37.83452 25.454378 -34.463898 46.20466c1.6853027 10.111191 7.4277496 18.654343 16.235458 24.145065c6.2957916 3.9253082 13.608765 5.9376144 21.238571 5.9376144c3.046875 0 6.141968 -0.32144928 9.246246 -0.96694946c3.9056091 -0.7840195 7.735443 -2.1795654 11.333374 -4.011551c3.4463806 8.718254 13.709793 10.461388 14.169006 10.55024c0.3834381 0 0.6130371 -0.52529144 0.3834381 -0.8728714c-2.5279694 -3.9226913 -4.2890472 -11.070305 -2.6037445 -18.481865c8.961533 -9.327171 13.020981 -21.445442 11.106064 -33.29976c-2.9068146 -17.967026 -18.852966 -30.163696 -37.529144 -30.163696z" fill-rule="evenodd"/><path fill="#556fde" d="m98.22299 110.74171c0.3834381 0 0.68881226 0 1.072258 0.086242676c-2.068756 0.17510223 -4.213272 0.4364395 -6.3577957 0.7840195c1.6853104 -0.60891724 3.5244522 -0.87026215 5.2855377 -0.87026215zm10.185333 0.7840195c4.367111 0.52267456 8.34848 2.8773346 11.181824 6.711174c3.2167816 4.1840286 4.9801636 9.5911255 4.902092 15.168083c-0.84265137 -2.2657928 -1.7610779 -4.4453583 -2.6795044 -6.3635864c-2.4521942 -5.579582 -5.439369 -11.070305 -10.263397 -14.033882c-0.9964905 -0.6115341 -2.068756 -1.1342087 -3.141014 -1.4817886zm-3.75177 -0.1750946c2.2983627 0.34757996 4.518654 1.1342087 6.5093384 2.35466c4.6724854 2.8747253 7.5839005 8.281815 10.033798 13.686302c0.9184265 2.0044632 1.8391418 4.1840286 2.6795044 6.4498367c-3.597931 -3.486267 -7.8112106 -6.102257 -12.254089 -7.8453903c-2.1445236 -1.9182205 -4.4405823 -3.4000092 -6.9685516 -4.445366c-3.9147873 -1.5236053 -7.999481 -2.2997818 -12.097954 -2.2997818c-1.9952774 0 -3.9951477 0.1855545 -5.976654 0.5566559c-1.3041611 0.26133728 -2.6818008 0.60891724 -3.9836655 1.0453491c0.61304474 -0.78401184 1.1480331 -1.5680313 1.7610779 -2.2658005c1.6853104 -2.268425 3.6759949 -4.1840363 5.89859 -5.754677c4.748253 -0.9591141 9.572281 -1.395546 14.320541 -1.4817886zm-11.838501 8.710411c3.9538193 0 7.886978 0.77617645 11.6846695 2.2736435c1.6853104 0.7840195 3.3706207 1.6568909 4.902092 2.8773422c-3.4877243 -1.144661 -7.035141 -1.6882477 -10.64225 -1.6882477c-0.5097275 0 -1.0217514 0.0104522705 -1.5360718 0.03135681c-2.8333359 0.086242676 -5.6666794 0.6977768 -8.34848 1.8319855c-4.0594406 1.8293686 -7.6573715 4.706703 -10.568779 8.368065c-1.1480331 0.1750946 -2.298355 0.43643188 -3.4463882 0.78401184l-0.3076706 0.086242676c2.0687485 -4.531616 4.4428787 -8.715645 7.276222 -12.638336c1.6095352 -0.6115265 3.2167816 -1.047966 4.902092 -1.3093033c2.0251312 -0.4129181 4.057144 -0.61676025 6.084564 -0.61676025zm6.275139 4.317314c4.148987 0 8.275017 0.79185486 12.22654 2.3154602c2.6795044 2.265808 4.824028 5.3182373 6.3577957 8.718246l0.07576752 0.17248535c-4.32119 -3.2510529 -9.342674 -5.0673523 -14.462898 -5.0673523c-0.23419952 0 -0.46839905 0.0052337646 -0.70259094 0.013076782l-0.07577515 0c-3.829834 0 -7.583893 0.78401184 -11.181824 2.1795502c-0.782959 -0.036575317 -1.565918 -0.052261353 -2.3534622 -0.052261353c-3.1433105 0 -6.3164673 0.27702332 -9.441414 0.83628845c2.6795044 -3.1386871 5.9743576 -5.665825 9.5722885 -7.322708c2.6037369 -1.0479736 5.361305 -1.6568909 8.196945 -1.7431335c0.5946808 -0.033973694 1.191658 -0.0496521 1.7886276 -0.0496521zm-18.563667 -1.7823257l0 0c-2.6795044 3.8364487 -4.9778595 7.9342422 -6.8927765 12.290749c-1.6853104 0.43643188 -3.2925568 1.0479736 -4.9020996 1.9182281c3.0652466 -6.972519 6.892784 -11.681839 11.489502 -14.122742l0.30537415 -0.08623505zm22.673622 8.61895c5.2694626 0 10.373611 1.9077606 14.703987 5.4175415c0.15154266 0.086242676 0.30537415 0.26133728 0.45921326 0.43382263c0.7645874 2.0933228 1.3018646 4.272888 1.6853104 6.5386963c0.15154266 0.6115265 0.22960663 1.134201 0.30537415 1.7431183c-1.2260971 -1.1315918 -2.7575684 -1.829361 -4.2890472 -2.1795654c-1.072258 -1.9156036 -2.3741226 -3.4862518 -3.9836655 -4.8818054c-1.6072464 -1.1315918 -3.3683243 -2.0906982 -5.2074738 -2.6133728c-4.4428787 -1.4817963 -8.961533 -2.4409027 -13.555954 -2.8773499c2.9871826 -1.0453491 6.050125 -1.5706329 9.191139 -1.5706329c0.22960663 -0.0052337646 0.4615097 -0.0104522705 0.69111633 -0.0104522705zm-25.736565 3.4993134c-2.757576 3.4000244 -5.2074738 7.1476135 -7.2004547 11.159164c1.072258 -3.575119 2.3764267 -6.975128 3.829834 -10.375153l0 0.086242676c0.3076706 -0.086242676 0.61304474 -0.17248535 0.92071533 -0.34757996c0.76459503 -0.1750946 1.6072464 -0.3501892 2.4499054 -0.52267456zm28.567612 10.98407l0 0.95910645c0 -0.26133728 -0.07576752 -0.6115265 -0.07576752 -0.95910645zm-0.83576965 0.3763275c0.14694977 0.59846497 0.14465332 1.1159058 0.07118225 1.7143707c-0.3765564 -0.044418335 -0.7531128 -0.065338135 -1.1273727 -0.065338135c-1.0745544 0 -2.139923 0.17771912 -3.1616745 0.50177c1.3569717 -0.85717773 2.7874222 -1.5471191 4.217865 -2.1508026zm-3.8137589 -4.3722076c0.3627777 0 0.7140732 0.05227661 1.0493011 0.15942383c1.3041611 0.52267456 2.2983627 1.8319855 2.6060333 3.3137665c-1.914917 0.8702698 -3.829834 1.9182281 -5.590912 3.1386871c0.07576752 -0.61154175 0.15153503 -1.1342163 0.15153503 -1.7457428c0.078071594 -0.6951599 0 -1.3067017 -0.22960663 -1.9156189c-0.3834381 -0.69776917 -1.072258 -1.134201 -1.7610779 -1.3093109c1.3891144 -1.1211395 2.6473618 -1.6412048 3.7747269 -1.6412048zm15.220604 2.425232l0 0c1.4534073 0.43643188 2.8333359 1.3092957 3.9056015 2.4409027c0.30537415 2.00708 0.45921326 4.0115356 0.45921326 6.102249c-1.3018723 -2.9635773 -2.757576 -5.840912 -4.3648148 -8.543152zm-19.837982 -0.086242676l0.3834381 0.086242676c0.61305237 0 1.2260971 0.3501892 1.6072464 0.95910645c0.15383148 0.43643188 0.22960663 0.9591217 0.15383148 1.3955536c-0.07576752 0.87286377 -0.15383148 1.6568756 -0.22960663 2.4409027c-0.3834381 0.26133728 -0.76688385 0.6115265 -1.1480255 0.95910645l-0.078071594 0c-1.914917 1.220459 -3.5221558 2.7884827 -4.902092 4.706711c-0.30537415 -0.17248535 -0.6107483 -0.52267456 -0.7645874 -0.8702545c-0.45921326 -0.78663635 -0.3076706 -2.00708 0.3834381 -3.4888763c1.1480331 -2.4409027 2.7552795 -4.531601 4.594429 -6.188492zm-2.2983627 9.416031l0 0c-0.3811493 0.52267456 -0.6888199 1.0453491 -0.9184265 1.5680237l-0.30537415 -0.086242676c0.3811493 -0.52267456 0.7645874 -1.0479584 1.2238007 -1.481781zm26.960373 -5.7546844l0 0c0.30537415 0.61154175 0.61304474 1.3067017 0.84265137 2.0044708c0.38344574 1.9182281 0.38344574 3.922699 -0.07576752 5.840912c-0.15383911 -0.43643188 -0.38344574 -0.8702545 -0.5372772 -1.3066864c0.07576752 -2.1795654 0 -4.359131 -0.22960663 -6.5386963zm-22.900932 2.5271454l0 0c-0.30537415 1.8319855 -0.6888199 3.6613617 -1.2238007 5.4071045c-0.9964905 -0.08886719 -1.992981 -0.2639618 -2.9114075 -0.43644714l-0.07577515 0c0.6107559 -1.3092957 1.4534073 -2.4409027 2.4499054 -3.488861c0.3834381 -0.43382263 0.76688385 -0.7840271 1.1480255 -1.131607l0.61305237 -0.3501892zm5.650612 -1.6124573c0.33522034 0 0.67274475 0.015686035 1.012558 0.044433594c-0.07576752 0.60891724 -0.22960663 1.2204437 -0.38114166 1.829361c-0.5372772 2.00708 -1.3799362 3.8364563 -2.4521942 5.493347c-1.4557037 0 -2.8333435 -0.086242676 -4.2890472 -0.26135254c0.5372772 -1.9182129 0.9184265 -3.9226837 1.2260971 -5.9271545c1.5360641 -0.8023071 3.1777496 -1.1786346 4.883728 -1.1786346zm2.3144302 0.30577087c2.83564 0.78401184 5.2855377 2.70224 7.8134995 4.620468c0.5349808 0.52267456 1.2260971 0.95910645 1.914917 1.481781c-1.3018646 0 -2.6037369 0.086242676 -3.9056015 0.26133728l-0.3076706 0c-2.5279694 0.35020447 -5.2074738 0.61154175 -8.118881 0.6977844c0.61305237 -1.0453644 1.1503296 -2.0933228 1.5314713 -3.2249298c0.53728485 -1.2204437 0.842659 -2.5297546 1.0722656 -3.836441zm7.333626 -5.0359955c0.49365234 0 0.98500824 0.023513794 1.4740677 0.06794739l0.23190308 0l0.3811493 0.60891724c1.8391418 3.1386719 3.4463882 6.4524536 4.902092 9.852463c0 0.6951599 -0.07576752 1.3066864 -0.15383911 2.0044708c-0.9184189 -0.61154175 -1.8368454 -1.0479736 -2.909111 -1.220459c-0.9964905 -0.78401184 -2.0687485 -1.481781 -3.141014 -2.35466c-2.5279617 -1.9182281 -5.0536346 -3.9226837 -8.04081 -4.706711c0.07576752 -0.87286377 0.15154266 -1.7431183 0.07576752 -2.70224c2.2937698 -1.0166016 4.745964 -1.5497284 7.1797943 -1.5497284zm7.678032 11.922256c0.15383911 0.35020447 0.3076706 0.6977844 0.38344574 1.0479736c0 0.17248535 0 0.26133728 -0.07577515 0.34757996l-0.22960663 0l-0.22960663 -0.26133728c0.07577515 -0.3501892 0.15154266 -0.69776917 0.15154266 -1.1342163zm-1.9906845 -17.52275c3.5244522 3.6613617 5.5151443 8.807114 5.590912 14.297836c0 1.6568909 -0.22960663 3.4000244 -0.61305237 5.1431427l-0.6888199 -0.086242676c-0.30537415 0 -0.5349808 -0.08885193 -0.84265137 -0.08885193c-0.07576752 -0.26133728 -0.15383911 -0.52267456 -0.30537415 -0.6951599c0.07576752 -0.26394653 0.15153503 -0.5252838 0.22960663 -0.87286377c0.45921326 -2.0933228 0.5349808 -4.359131 0.07576752 -6.5386963c-0.38344574 -1.220459 -0.99419403 -2.3520508 -1.7610779 -3.2249146c-0.15383911 -0.872879 -0.30538177 -1.8319855 -0.45921326 -2.7884827c-0.3076706 -1.7457428 -0.6888199 -3.4888763 -1.2260971 -5.145767zm-6.203964 -10.722717c3.829834 1.7457428 7.3519897 4.1866455 10.493004 7.2364655l0.6888199 0.69776917c2.1445236 6.1022644 3.6760025 13.077393 2.9871826 20.138763c-0.07577515 0.6951599 -0.22960663 1.481781 -0.30538177 2.176941c-0.68881226 -0.086242676 -1.3018646 -0.086242676 -1.914917 -0.086242676c0.30538177 -1.6568909 0.5349884 -3.4000092 0.61305237 -5.1431427c-0.15383911 -6.188492 -2.6037369 -12.118271 -6.892784 -15.952103c-0.229599 -0.5252838 -0.46150208 -1.1342163 -0.6911087 -1.6568909c-1.2238007 -2.791092 -2.909111 -5.3182373 -4.977867 -7.41156zm12.407921 9.240936l0 0c4.9020996 5.6684265 8.424255 12.640945 10.109573 20.313843c-2.6795044 0.43382263 -5.283249 0.6951599 -7.9650497 0.6951599c0.15383148 -0.6951599 0.22960663 -1.3929291 0.30538177 -2.0907135c0.46150208 -6.4524384 -0.3811493 -12.902283 -2.4499054 -18.91829zm-37.22377 -23.536156l0 0c-1.6830139 1.3955536 -3.2167816 2.963585 -4.5944214 4.7955627c-0.84265137 1.0453568 -1.6853104 2.1769485 -2.5279617 3.2249222c-0.45921326 0.26133728 -0.99419403 0.43643188 -1.4557037 0.69776917c-4.977867 2.5271454 -9.113075 7.756531 -12.254089 15.429428c-0.84265137 0.43643188 -1.6072464 1.0453644 -2.2960587 1.6568909c-2.1445274 2.0044708 -3.9079018 4.359131 -5.20977 7.1476135c-1.914917 3.6613464 -3.3683243 7.75914 -4.2109795 11.943161l0 -0.52267456c0 -0.69776917 -0.07806778 -1.3955383 -0.1538353 -2.0933228l-0.1538353 -2.0044556c-0.61305237 -6.624939 -1.1480331 -13.600067 0.9964905 -19.613464c2.0687523 -6.016014 6.2797318 -10.027565 9.420742 -12.204514c4.2109833 -2.8773346 8.807701 -4.9706573 13.631729 -6.1911087c2.987175 -0.9591141 5.9743576 -1.6568909 8.8076935 -2.265808zm34.773872 45.070457l0.45921326 0.086242676l0.61305237 0.08622742c-0.078071594 0.35020447 -0.15383911 0.872879 -0.22960663 1.1342163c-0.078071594 0.1750946 -0.15383911 0.43643188 -0.15383911 0.69776917c-0.22960663 -0.69776917 -0.45921326 -1.3092957 -0.6888199 -2.0044556zm-25.504662 -1.8319855l0.07576752 0.086242676c1.3776398 0.08885193 2.6037369 0.1750946 3.9056015 0.1750946c-1.6072464 2.0933228 -3.6002274 3.836441 -5.896286 4.9706573c0.7645874 -1.6568909 1.4557037 -3.4000092 1.914917 -5.2319946zm-24.586243 -20.661438c-1.914917 4.447983 -3.4463882 9.068451 -4.5944214 13.861404c-1.7633743 4.011551 -3.2167816 8.195572 -4.2890472 12.554703c-0.6911125 -8.109329 0.5349808 -16.21605 3.597931 -23.538757c0.078063965 -0.26133728 0.15383911 -0.5226898 0.3076706 -0.7840271c1.6072464 -0.87286377 3.2925568 -1.5680237 4.977867 -2.0933228zm22.517487 8.1093445c-1.6853104 1.6542664 -3.0629501 3.6613464 -4.135208 5.840912c-0.842659 1.8293762 -0.9964905 3.3111572 -0.45921326 4.3565216c0.22960663 0.43643188 0.6107559 0.87286377 0.99419403 1.134201c-0.7645874 1.3067017 -1.3776398 2.70224 -1.6853104 4.272888c-0.22960663 1.0453491 -0.38114166 2.0907135 -0.30537415 3.1360626c-1.7610779 -0.17248535 -3.2925568 -1.3929291 -4.135208 -3.04982c-0.38344574 -0.78401184 -0.5372772 -1.5680237 -0.61305237 -2.35466c-0.84265137 -7.061371 3.9813766 -13.336105 10.263405 -13.336105zm-1.8391418 12.029419l0.3076706 0.08622742c0.9964905 0.17510986 1.914917 0.26135254 2.909111 0.43644714c-0.6107559 1.9182281 -1.3018723 3.747589 -2.1445236 5.5795746l-0.07576752 0.1750946c-0.6888199 0.26133728 -1.4557037 0.43382263 -2.2983627 0.52267456l0 -0.08885193c-0.07576752 -2.3520508 0.3076706 -4.706711 1.3018723 -6.7111664zm29.488335 4.7955627c0.07576752 0.34757996 0.22960663 0.6951599 0.30537415 1.0453491c-0.07576752 0.26133728 -0.22960663 0.60891724 -0.30537415 0.95910645c0.07576752 -0.69776917 0.07576752 -1.3092957 0 -2.0044556zm-30.5606 -5.1431427l0.38344574 0.08622742c-0.99420166 2.1795654 -1.4557037 4.620468 -1.3018723 7.061371c-0.19057465 0.04182434 -0.3627777 0.065338135 -0.5349808 0.065338135c-0.17220306 0 -0.34440613 -0.023513794 -0.5372772 -0.065338135l0.078063965 0c-0.078063965 -0.95910645 0 -2.0044556 0.22960663 -3.0524292c0.30537415 -1.4817963 0.9184265 -2.8747253 1.6830139 -4.095169zm7.505829 4.0089264l0 0c-0.6888199 0.69776917 -1.3776398 1.3955536 -2.1445236 2.1795654c-1.2238007 1.134201 -2.5256653 2.1795654 -3.9056015 3.04982c0.38344574 -0.60891724 0.76688385 -1.3066864 1.1503296 -2.0044708l0.15153503 0c1.6853104 -0.78401184 3.2948532 -1.829361 4.7482605 -3.2249146zm-5.896286 3.575119l0 0c-0.45921326 0.78401184 -0.842659 1.481781 -1.3776398 2.0906982c-0.15383911 -0.60891724 -0.23190308 -1.1315918 -0.3076706 -1.7431183c0.5372772 0 1.072258 -0.17510986 1.6853104 -0.34757996zm32.551277 -4.620468c-0.45920563 2.70224 -1.150322 5.315628 -1.9149094 7.8453827c0 -0.61154175 -0.078071594 -1.3093109 -0.15383911 -1.9182281c-0.07576752 -0.95910645 -0.30537415 -1.8319855 -0.5349808 -2.70224l0.07576752 0c0.15383911 -0.69776917 0.22960663 -1.3067017 0.38344574 -2.0044708c0.07576752 -0.3501892 0.15153503 -0.7866211 0.22960663 -1.2204437zm-36.07344 5.0542755c0.3811493 0 0.6888199 0.08886719 1.0722656 0.08886719c0.07576752 0.78401184 0.229599 1.481781 0.45920563 2.265808c-0.3076706 0.1750946 -0.61304474 0.34757996 -0.9964905 0.52267456c-0.30537415 -0.9591217 -0.45921326 -1.9182281 -0.5349808 -2.8773499zm30.328697 -5.840912c0.15383148 0.1750946 0.22960663 0.2639618 0.3834381 0.43643188c-0.84265137 2.9635925 -1.992981 5.840927 -3.5244522 8.370682c1.3018646 -2.35466 2.298355 -4.8818054 2.9114075 -7.5866547c0.07576752 -0.34757996 0.15383148 -0.7840271 0.22960663 -1.131607l0 -0.08885193zm-24.533432 -21.892334c0.18598175 0 0.37425995 0.0052337646 0.56023407 0.013076782c1.7610855 0 4.977867 0.34757996 6.8170166 2.8773346c0.3834381 0.60891724 0.76688385 1.2204437 1.072258 2.0044708c0.45921326 1.2204437 0.76688385 2.6159973 0.842659 4.0089264l-0.22960663 0.08885193c-0.45921326 -1.7457428 -1.6095428 -3.2275238 -3.141014 -3.836441c-0.38344574 -0.13067627 -0.78525543 -0.1960144 -1.2031403 -0.1960144c-1.2559433 0 -2.6634293 0.5880127 -4.1581726 1.7640381c-0.22960663 0.1750946 -0.45920563 0.3501892 -0.68881226 0.61154175c-0.36966705 -0.04182434 -0.7347412 -0.06272888 -1.0952225 -0.06272888c-6.5414886 0 -11.719109 6.5831146 -10.775429 14.185455c0.07577515 0.8702545 0.30538177 1.7431335 0.6107559 2.613388c0.9964905 2.00708 2.83564 3.3137665 4.8263245 3.575119c0.15383911 1.134201 0.30537415 2.1795502 0.6888199 3.2249146c-0.6888199 0.3501892 -1.3776398 0.6115265 -2.0664597 0.78401184c-1.7633743 -0.26133728 -3.3706207 -1.4817963 -4.2890472 -3.1360626c-1.150322 -2.1795654 -1.7633743 -4.620468 -1.8391418 -7.061371c-0.30537415 -4.184021 -0.22960663 -12.032028 4.135208 -17.000076c2.697876 -2.8224487 6.2292175 -4.458435 9.93277 -4.458435zm-5.2602844 -2.3415833c5.2074738 0.26133728 10.263405 1.2204437 15.241264 2.8773346c1.8391495 0.52267456 3.5244598 1.3955383 5.055931 2.5271454c1.3018723 1.134201 2.4499054 2.4409027 3.3683243 4.0115356c-0.35359192 -0.023513794 -0.7094803 -0.033966064 -1.0653687 -0.033966064c-2.4912338 0 -5.0031204 0.5357361 -7.2831116 1.602005c-0.15154266 -1.3955536 -0.45921326 -2.7884827 -0.99419403 -4.0977936c-0.30767822 -0.78401184 -0.6888199 -1.481781 -1.1503296 -2.1795654c-1.9126205 -2.6133728 -5.0536346 -3.1360626 -7.3519974 -3.1360626c-0.10102081 -0.002609253 -0.20204926 -0.005218506 -0.30537415 -0.005218506c-3.9492264 0 -7.7354355 1.6516571 -10.646843 4.7119293c-4.5944214 5.2293854 -4.6724854 13.249863 -4.3648148 17.608994c0.07576752 2.6159973 0.7645874 5.1431427 1.914917 7.408951c0.84265137 1.4817963 1.9906845 2.5297546 3.3683243 3.1386719c-0.96894073 0.23258972 -1.9401703 0.31098938 -2.909111 0.31098938c-0.48447418 0 -0.9712372 -0.020904541 -1.4557037 -0.0496521c-5.1316986 -0.69776917 -10.722618 -5.40448 -10.87645 -12.029404c-0.07577515 -3.575119 1.5314713 -7.322708 4.596718 -11.245407c4.0594406 -5.2319946 9.191139 -9.154694 14.857819 -11.420486zm1.3776398 33.127274l0.078063965 0.1750946c1.2260971 3.3111572 3.2925568 6.188492 5.8962936 8.10672l-0.45921326 -0.1750946c-2.8264542 -1.3903198 -5.193695 -3.9958649 -6.4220886 -7.29657l0 0c0.34210968 -0.24043274 0.624527 -0.4887085 0.9069443 -0.81015015zm22.616219 -10.92395c0.7140732 0 1.4258575 0.041809082 2.1238556 0.114990234c0.99420166 0.6951599 1.9906921 1.2204437 3.0629501 1.6542664c-0.07576752 0.43643188 -0.15383148 0.872879 -0.22960663 1.220459c-1.4557037 6.0160065 -4.5944214 11.334244 -9.0373 14.995605c-2.40168 1.4347382 -5.039856 2.1743317 -7.6918106 2.1743317c-0.7301483 0 -1.4602966 -0.057495117 -2.1881485 -0.1698761c-3.6002274 -1.829361 -6.433571 -5.0569 -7.965042 -9.240921c0 -0.086242676 -0.078063965 -0.1750946 -0.078063965 -0.1750946c1.8391418 -1.131607 3.6002197 -2.4409027 5.2097626 -4.0089417c1.836853 -1.6568909 3.4463882 -3.4862518 4.824028 -5.6658173c3.0629501 0 5.9743576 -0.3501892 8.653862 -0.61154175l0.3076706 0c0.9873123 -0.20384216 1.9998703 -0.28746033 3.007843 -0.28746033zm-7.372658 20.251114l-0.3834381 0.26135254c-0.53728485 0.3501892 -1.1503296 0.69776917 -1.7610855 0.95910645c-0.69111633 -0.086242676 -1.4557037 -0.26133728 -2.0687485 -0.43643188c1.3776321 -0.086242676 2.8333359 -0.26133728 4.213272 -0.7840271zm14.090942 -16.824966c0.92071533 2.0044708 0.61304474 4.4453583 0.078063965 6.191101c-2.068756 6.8862762 -7.5839005 11.592987 -13.9394 12.029419l-0.92072296 0l0.69111633 -0.3501892c1.2238007 -0.6951599 2.4498978 -1.568039 3.6759949 -2.613388c0.9184265 -0.52267456 1.836853 -1.220459 2.6037369 -1.9182281c3.75177 -3.4862518 6.433571 -8.10672 7.8112106 -13.338715zm-32.47322 -25.80458c-5.2074738 2.4409027 -9.804192 6.1911163 -13.555954 10.897827c-3.2167816 4.0977936 -4.8263245 8.10672 -4.750557 11.856934c0.078071594 7.061371 6.0524216 12.115646 11.489502 12.813431c0.4821701 0.041809082 0.97122955 0.065322876 1.4602966 0.065322876c1.5291748 0 3.081314 -0.21168518 4.5898285 -0.6742401l0.9964905 0c0.45921326 -0.08886719 0.9184265 -0.26135254 1.3776398 -0.43644714c1.3018646 3.4000244 3.7540588 6.188507 6.817009 7.670288c0.9964905 0.43643188 2.0687485 0.78663635 3.141014 0.9591217c1.1480331 0.6115265 2.2202911 1.0479584 3.4463882 1.3092957c-3.9767761 1.5915527 -8.196945 2.4409027 -12.396439 2.4409027c-1.5429611 0 -3.0836182 -0.114990234 -4.6059036 -0.3501892c-9.269211 -1.2204437 -16.237755 -6.188492 -18.689957 -13.249863c-1.9906845 -5.7546844 -0.84265137 -12.290756 0.22960663 -16.649887l0 -0.08885193c2.4522018 -5.75206 5.6689835 -10.984055 9.498817 -15.604523c3.6002274 -0.69776917 7.276222 -0.9591217 10.952217 -0.9591217zm-25.50467 32.69084c0.5349884 2.7022552 1.4557037 5.23201 2.6037369 7.6729126c3.9056015 7.75914 10.493011 13.336105 18.152672 15.429428c-4.980156 -0.26133728 -9.879959 -1.568039 -14.476677 -3.8364563c-2.6037292 -1.3929291 -5.97435 -3.9226837 -7.046612 -7.9316254c-0.6888199 -2.6159973 -0.30537796 -5.40448 0.1538353 -7.9342346c0.1538353 -1.1315918 0.38344193 -2.265808 0.61304474 -3.4000244zm59.8928 -2.7884827c0.078071594 0.43644714 0.15383911 0.872879 0.15383911 1.3067017c0.15383911 1.5706482 0.15383911 3.1386719 -0.07576752 4.70932c-0.9964905 3.4862518 -2.4521942 6.7111664 -4.367111 9.588516c-3.75177 5.3182373 -9.191139 7.8453827 -13.020973 8.890732c-2.6795044 0.78663635 -5.4370804 1.220459 -8.194649 1.3955536c7.0466156 -1.7431335 13.480186 -5.92717 18.536118 -11.856934c1.4534073 -1.6542816 2.7575684 -3.4862518 3.8298264 -5.4907227c1.3776398 -2.6159973 2.4499054 -5.5795746 3.1387177 -8.543167zm-56.370636 -9.588501l0 0c-0.6888199 4.095169 -0.9184265 8.890732 0.61305237 13.336105c2.6037292 7.322708 9.728416 12.465851 19.22493 13.686295c1.6439819 0.250885 3.2948532 0.37895203 4.938835 0.37895203c4.6334534 0 9.223282 -0.99832153 13.519218 -2.99234c0.7645874 0.086242676 1.5314713 0.086242676 2.298355 0.086242676c5.2074738 -0.34757996 9.955727 -3.4862518 12.867134 -8.368057l0 0c-0.3076706 0.52267456 -0.5372772 1.0453491 -0.84265137 1.6568909c-1.0722656 1.9156036 -2.2983627 3.6613464 -3.6759949 5.315628c-6.6539917 7.8270874 -15.87957 12.484146 -24.776817 12.484146c-0.32144928 0 -0.6406021 -0.0052337646 -0.9574585 -0.018295288c-9.882256 -0.34757996 -19.149162 -6.624939 -23.513977 -15.865875c-1.3799362 -2.8747253 -2.2983627 -6.013397 -2.8333435 -9.152069c0.842659 -3.575119 1.914917 -7.061371 3.1387177 -10.547623zm-11.716808 11.592972l0 0c0.38114548 2.8773346 0.99419403 5.6658173 1.9906883 8.368057c2.603733 6.713791 7.889267 12.204514 14.857819 15.69339l-2.1445236 -0.872879c-3.8298264 -1.5680237 -8.194645 -3.5724945 -10.874149 -7.4978027c-0.76688766 -1.2204437 -1.4557037 -2.613388 -1.9929848 -4.095169c-1.3018646 -3.6613617 -1.914917 -7.5840454 -1.8368492 -11.595596zm11.181828 -26.67482l0 0c-3.446392 8.804489 -4.518654 17.695236 -3.3706207 25.62947c-0.38344193 1.6568909 -0.6888199 3.4000092 -0.9964905 5.1431427c-0.45921326 2.5271454 -0.84036255 5.4907227 -0.15154266 8.281815c1.1480331 4.270279 4.6724854 6.8862762 7.505829 8.456924c6.5093384 3.4862518 14.015167 4.0089264 21.137558 4.095169c0.66815186 0.013061523 1.3408966 0.018295288 2.0182343 0.018295288c4.465843 0 9.152107 -0.3005371 13.606468 -1.586319l1.0722656 -0.35020447l0 0c-5.7263794 2.725769 -11.797173 4.108246 -17.877144 4.108246c-3.8436127 0 -7.689514 -0.5514221 -11.457359 -1.6673431c-9.572281 -2.8747253 -16.848507 -9.238312 -19.989521 -17.433899c-1.377636 -3.836441 -2.2202911 -7.9316254 -2.4498978 -12.118256l0.07577133 0c0.61304855 -5.143158 2.1445198 -10.111191 4.51865 -14.645416c1.2260971 -2.613388 2.9871788 -4.968048 4.9778633 -6.8000336c0.4615097 -0.43382263 0.92072296 -0.78401184 1.3799362 -1.1315918zm68.854324 19.26587c0.3053894 1.7431335 0.5349884 3.4000244 0.6888275 5.1431427c0.5372772 4.1840363 0.07577515 8.3680725 -1.1480408 12.379608c-2.144516 6.1022644 -6.8927765 10.372528 -10.492996 12.727188c-6.936409 4.6701202 -15.441025 7.111023 -24.6689 7.111023c-0.7577057 0 -1.5222931 -0.018295288 -2.2914734 -0.0496521c-5.4370804 -0.26133728 -10.87645 -1.2204437 -16.083923 -2.791092l0 0c2.7415009 0.56448364 5.503662 0.84150696 8.256645 0.84150696c7.4759827 0 14.87619 -2.0567322 21.537071 -6.0708923c3.829834 -2.1795654 7.122383 -5.2319946 9.72612 -8.979599c1.6853104 -2.5271454 2.83564 -5.4907227 3.2948532 -8.543152c0.22960663 -0.78401184 0.45920563 -1.4817963 0.68881226 -2.1795654c0.9184265 -2.8773346 1.6853104 -5.840912 2.2202988 -8.890732c2.7575684 0 5.5151367 -0.1750946 8.272705 -0.6977844zm56.398193 -130.70587c-5.9582825 0 -11.930344 2.4330635 -16.648743 7.351454c-9.65036 10.024948 -10.339172 26.938782 -1.5314789 37.92284c4.4313965 5.503792 10.499893 8.307953 16.593643 8.307953c5.391159 0 10.80069 -2.192627 15.11499 -6.6510696c8.731918 -9.068443 9.344971 -24.497875 1.3776398 -34.43658c-4.0158234 -5.0333786 -9.517181 -7.5971107 -15.046112 -7.5971107c-4.9020844 0 -9.827148 2.0175323 -13.751114 6.115322c-7.965042 8.195576 -8.502319 22.143215 -1.3018646 31.20905c3.6553345 4.5786514 8.669922 6.899338 13.702896 6.899338c4.456665 0 8.929398 -1.8189163 12.490585 -5.503784c7.2004547 -7.4978065 7.735428 -20.224995 1.1503296 -28.420574c-3.3338928 -4.1631203 -7.896164 -6.264282 -12.474518 -6.264282c-4.050247 0 -8.111984 1.6438179 -11.347137 4.957592c-6.5093384 6.8862686 -6.9685516 18.395622 -0.99420166 25.890808c2.9963684 3.7345276 7.1292877 5.6396866 11.27597 5.6396866c3.6943665 0 7.3979187 -1.5131454 10.323105 -4.591713c5.972061 -6.1911125 6.433563 -16.652496 0.9941864 -23.452526c-2.7598572 -3.4183083 -6.5322876 -5.148369 -10.313904 -5.148369c-3.3499603 0 -6.7068024 1.3589592 -9.370239 4.103016c-5.4370728 5.6658173 -5.820526 15.168091 -0.84265137 21.3592c2.4728546 3.1360626 5.8871 4.70932 9.3151245 4.70932c3.0537567 0 6.1144104 -1.246582 8.532166 -3.750206c4.9020996 -5.1431427 5.283249 -13.861401 0.7645874 -19.440979c-2.2822876 -2.8302956 -5.4095154 -4.2754974 -8.539047 -4.2754974c-2.7552795 0 -5.510559 1.1185303 -7.696411 3.4026299c-4.5209503 4.70932 -4.8263245 12.554703 -0.69111633 17.697845c2.0756378 2.5454369 4.9043884 3.8364525 7.744629 3.8364525c2.5095978 0 5.0260773 -1.0087662 7.03743 -3.0524368c4.059433 -4.2702713 4.367111 -11.506737 0.68881226 -16.127201c-1.9011383 -2.349434 -4.486496 -3.5306854 -7.067276 -3.5306854c-2.305252 0 -4.605896 0.9408188 -6.410614 2.8329086c-3.7540588 3.8364525 -3.9836578 10.375141 -0.6130371 14.645416c1.6990814 2.1194534 4.0410614 3.1909447 6.3899384 3.1909447c2.0986023 0 4.2017975 -0.8545761 5.8641357 -2.5794144c3.3706207 -3.4888687 3.600235 -9.416027 0.5349884 -13.338718c-1.5360718 -1.9312935 -3.6691132 -2.9165382 -5.813629 -2.9165382c-1.9195099 0 -3.8482056 0.7866287 -5.3681946 2.3938599c-3.0629425 3.1386757 -3.2925568 8.629398 -0.45921326 12.118271c1.4235535 1.7561951 3.363739 2.6551971 5.317688 2.6551971c1.7289276 0 3.467041 -0.7029991 4.8699493 -2.1325226c2.7552643 -2.8773384 2.9871674 -7.8479958 0.45921326 -11.072914c-1.2261047 -1.4817886 -2.8333435 -2.352047 -4.5967255 -2.352047c-0.1630249 -0.018295288 -0.32603455 -0.026134491 -0.48677063 -0.026134491c-1.5842743 0 -3.07901 0.75788116 -4.26149 1.9417458c-0.15383911 0.17509842 -0.15383911 0.4364357 0 0.6115341c0.078063965 0.044425964 0.1722107 0.06533432 0.25946045 0.06533432c0.08494568 0 0.1630249 -0.020908356 0.19975281 -0.06533432c1.0768585 -1.1446648 2.4912262 -1.7509689 3.9239807 -1.7509689c0.09642029 0 0.19285583 0.0026130676 0.28929138 0.007839203c1.607254 0.086242676 3.0629578 0.87025833 4.0594482 2.1795654c2.298355 2.8773346 2.144516 7.3227043 -0.38345337 9.938705c-1.2238007 1.2674904 -2.7828217 1.9025421 -4.3487396 1.9025421c-1.7679596 0 -3.5428162 -0.81015015 -4.842392 -2.4278336c-2.5279694 -3.1360626 -2.2960663 -8.106724 0.45921326 -10.984062c1.3661499 -1.4295197 3.1042786 -2.1325226 4.837799 -2.1325226c1.9654388 0 3.9262695 0.8990059 5.349823 2.655201c2.8333435 3.4888687 2.6037445 8.979595 -0.459198 12.207127c-1.5452576 1.5523491 -3.476242 2.3180695 -5.391159 2.3180695c-2.1697845 0 -4.3211975 -0.98524475 -5.868744 -2.9296036c-3.1387177 -3.9226913 -2.9091034 -9.938705 0.5372772 -13.511204c1.6876068 -1.7588081 3.8160553 -2.6159973 5.937622 -2.6159973c2.4016876 0 4.798767 1.0976219 6.5460815 3.2249146c3.4463806 4.359127 3.1410065 11.072918 -0.61305237 14.995609c-1.8598175 1.9129944 -4.2063904 2.85643 -6.5437775 2.85643c-2.6680298 0 -5.3245697 -1.2256775 -7.241791 -3.6430588c-3.829834 -4.706707 -3.6002197 -12.115658 0.61305237 -16.474785c2.0894165 -2.1743355 4.7069244 -3.2484398 7.315262 -3.2484398c2.9320679 0 5.852661 1.35635 8.00177 4.0324554c4.2132874 5.318241 3.829834 13.424961 -0.7645874 18.306767c-2.300644 2.3729553 -5.1730194 3.5359116 -8.031631 3.5359116c-3.237442 0 -6.4611206 -1.4922409 -8.819168 -4.406166c-4.6724854 -5.929775 -4.2890472 -14.909367 0.84265137 -20.138752c2.5233765 -2.6656532 5.708008 -3.9827995 8.89035 -3.9827995c3.5818634 0 7.1614227 1.6647263 9.797302 4.9419136c5.1316986 6.449833 4.7482605 16.388538 -0.9184265 22.3157c-2.7966003 2.8982391 -6.3164673 4.3251495 -9.824844 4.3251495c-3.988266 0 -7.9627533 -1.8398209 -10.855789 -5.456749c-5.666687 -7.061367 -5.2832336 -18.134281 0.9964905 -24.67036c3.092804 -3.1935577 6.9800262 -4.7720413 10.858078 -4.7720413c4.383194 0 8.757187 2.0149193 11.964783 5.9924927c6.282028 7.8453865 5.744751 20.049896 -1.1480255 27.283749c-3.407364 3.5123901 -7.6872253 5.245064 -11.953308 5.245064c-4.842392 0 -9.666412 -2.2344437 -13.167908 -6.6380005c-6.9708557 -8.632011 -6.4335785 -22.143215 1.1480255 -30.077454c3.7724304 -3.9226913 8.520691 -5.853985 13.25058 -5.853985c5.354416 0 10.688171 2.4774895 14.552444 7.3383865c7.735428 9.588512 7.1223907 24.495266 -1.3018646 33.21352c-4.183426 4.348671 -9.450592 6.496872 -14.694809 6.496872c-5.896286 0 -11.762726 -2.7153015 -16.017334 -8.06752c-8.502319 -10.633865 -7.889267 -27.11126 1.4534149 -36.788628c4.601303 -4.7432957 10.382797 -7.0901165 16.150497 -7.0901165c6.5208282 0 13.02327 3.0001678 17.780716 8.922098c7.581604 9.416031 7.3519897 24.67036 -0.84265137 46.638485c-10.109573 27.200111 -21.215622 41.233994 -35.768066 55.00653c-9.879959 9.416031 -23.97319 16.216064 -36.99417 18.481873c-1.836853 -8.368057 -5.820511 -16.04097 -11.333366 -21.879272c0.45921326 -6.3661957 -1.3799362 -12.640938 -5.055931 -17.4365c-2.987175 -4.0977936 -7.3519897 -6.624939 -12.024483 -7.061371c-1.1480255 -0.086242676 -2.2202911 -0.086242676 -3.370613 -0.086242676c-0.9184265 -0.1750946 -1.914917 -0.26133728 -2.757576 -0.3501892c-1.2260971 -0.1359024 -2.5325546 -0.24565887 -3.8665695 -0.24565887c-2.0848236 0 -4.23394 0.26917267 -6.242996 1.1185226c-0.61304474 0.2613449 -1.2260971 0.60892487 -1.8368454 1.0453568c-3.3706207 0.6115341 -6.8950806 1.4817886 -10.571075 2.6159973c-4.824028 1.306694 -9.496513 3.4000168 -13.785561 6.277359c-3.2167854 2.2658005 -7.5816 6.363594 -9.726124 12.638336c-2.2225876 6.2773438 -1.609539 13.252472 -1.0722618 19.963654l0.22960663 2.0933075c0 0.6977844 0.07577133 1.3955536 0.15153885 2.0907135c0.07806778 1.1342163 0.15383911 2.2684174 0.23190308 3.4888763c-0.6911125 5.40448 -0.078063965 10.895203 1.6830139 15.952103c0.53728104 1.5706482 1.2260971 2.9635773 2.0687523 4.359131c2.7575722 4.0977783 7.276222 6.102249 11.259895 7.75914c10.490707 4.184021 19.222633 6.3635864 27.571121 6.7111664l2.298355 0c9.420746 0 17.99884 -2.4409027 24.967392 -7.233841c5.361313 -3.575119 9.115372 -8.1093445 10.87645 -13.163635c1.2260895 -4.0977783 1.6853027 -8.456909 1.1480255 -12.727188c-0.15153503 -1.7457275 -0.3811493 -3.488861 -0.7645874 -5.145752c13.172516 -2.265808 27.419586 -9.152069 37.37532 -18.5681c14.628204 -13.858788 25.734268 -27.981522 35.997665 -55.354126c8.270416 -22.23207 8.502319 -37.74774 0.6888275 -47.51135c-4.8676605 -6.0970306 -11.565277 -9.183439 -18.276672 -9.183439z" fill-rule="evenodd"/></g></svg>