<svg id="Layer_1" data-name="Layer 1" xmlns="http://www.w3.org/2000/svg" xmlns:xlink="http://www.w3.org/1999/xlink" width="650" height="680" viewBox="0 0 650 680"><defs><style>.cls-1{fill:none;}.cls-2{clip-path:url(#clip-path);}.cls-3{fill:#ffcd00;}.cls-4{fill:#fff;}.cls-5{fill:#12284c;}</style><clipPath id="clip-path" transform="translate(-20 -19.99)"><rect class="cls-1" x="20" y="20" width="710" height="710"/></clipPath></defs><title>uc-san-diego-tritons-logo-freelogovectors.net_</title><g class="cls-2"><path class="cls-3" d="M720.82,459.54l-285.77-18.4a3.29,3.29,0,0,0-1.69.36,3.35,3.35,0,0,0-1.27,1.18,3.3,3.3,0,0,0,0,3.29l36,59.89-95.62,57.42c-15-19.19-31.82-39-50.06-59.17L561.27,273.4l46.38,46.38a3.15,3.15,0,0,0,1.36.78,3.21,3.21,0,0,0,1.57.07,3.33,3.33,0,0,0,1.39-.7,3.38,3.38,0,0,0,.91-1.27L723.55,30.49a3.3,3.3,0,0,0,.07-1.79,3.2,3.2,0,0,0-.87-1.55,3.27,3.27,0,0,0-3.34-.81L431.23,137a3.27,3.27,0,0,0-1.26.91,3.23,3.23,0,0,0-.71,1.39,3.34,3.34,0,0,0,.07,1.57,3.24,3.24,0,0,0,.79,1.35l46.38,46.39-230.82,239c-20-18.21-39.84-35-59.17-50L244,281.81l59.85,36a3.39,3.39,0,0,0,1.65.44,3.36,3.36,0,0,0,1.64-.44,3.3,3.3,0,0,0,1.17-1.26,3.33,3.33,0,0,0,.38-1.67L290.35,29a3.3,3.3,0,0,0-.83-1.73,3.27,3.27,0,0,0-5.08.32L163.14,229.48a2.55,2.55,0,0,0-.39,1.25L54.28,411.52a3.21,3.21,0,0,0-.42,1.23A3.1,3.1,0,0,0,55.53,416c31,16.43,74.51,49,117,87.43L25.94,654.79l69,69L246.7,577.42c38.46,42.46,71,86.05,87.44,117a3.23,3.23,0,0,0,.84,1,3.17,3.17,0,0,0,1.16.58,3.45,3.45,0,0,0,1.28.09,3.34,3.34,0,0,0,1.22-.42L519.16,587.21a2.94,2.94,0,0,0,1.35-.46L722.37,465.46a3.32,3.32,0,0,0,1.16-1.53,3.29,3.29,0,0,0-.87-3.57,3.35,3.35,0,0,0-1.74-.82Z" transform="translate(-20 -19.99)"/><path class="cls-4" d="M95,730a6.15,6.15,0,0,1-2.32-.46,6.05,6.05,0,0,1-2-1.32l-69-69a6,6,0,0,1,0-8.48l142.09-147c-40.56-36.16-81.78-66.83-111.07-82.38A9.1,9.1,0,0,1,49.89,419a9.29,9.29,0,0,1-1.71-3.32,9.22,9.22,0,0,1,1-7.23L157,228.53a10.11,10.11,0,0,1,.92-2.17L279.24,24.5a9.24,9.24,0,0,1,17.16,4.18l18.41,285.77a9.27,9.27,0,0,1-14,8.55l-54.7-32.87L194.54,376c16.63,13.15,33.69,27.61,50.85,43.06L468,188.69l-42.14-42.14a9.24,9.24,0,0,1,3.29-15.19L717.24,20.69a9.17,9.17,0,0,1,9.86,2.2,9.27,9.27,0,0,1,2.58,4.6,9.17,9.17,0,0,1-.38,5.26L618.53,320.83a9.07,9.07,0,0,1-11.14,5.54,9.13,9.13,0,0,1-3.91-2.35L561.2,281.88,330.85,504.48c15.48,17.19,29.94,34.28,43.09,50.88l85.83-51.57-32.87-54.7a9.16,9.16,0,0,1,0-9.57,9.29,9.29,0,0,1,8.51-4.43l285.77,18.4a9.22,9.22,0,0,1,8.43,7,9.24,9.24,0,0,1-4.25,10.12L523.53,591.94a7.61,7.61,0,0,1-2.23,1l-179.64,108a9.29,9.29,0,0,1-13.15-3.65c-15.51-29.29-46-70.54-82.37-111.07L99.24,728.22A6,6,0,0,1,95,730ZM34.46,654.73,95.1,715.37,242.39,573.08a5.78,5.78,0,0,1,2-1.33,5.59,5.59,0,0,1,2.39-.38,6.21,6.21,0,0,1,4.31,2C288.74,615,321,657.69,338,688.94l178-106.86a5.37,5.37,0,0,1,1.81-.72l193.57-116.3L440.11,447.61l33.17,55.19a6.09,6.09,0,0,1-2.11,8.32l-95.58,57.42a6,6,0,0,1-4.23.78,6,6,0,0,1-3.66-2.23c-14.89-19.06-31.63-38.85-49.77-58.77a6.05,6.05,0,0,1,.26-8.41L557.06,269.09a6.09,6.09,0,0,1,8.48,0l43.26,43.23,106.8-278L437.51,141.09l43.26,43.26a6,6,0,0,1,0,8.48L250,431.67a6.07,6.07,0,0,1-8.42.26c-19.72-18.08-39.64-34.81-58.74-49.73a6.07,6.07,0,0,1-1.48-7.89l57.49-95.62a6.08,6.08,0,0,1,3.72-2.76,6.23,6.23,0,0,1,4.6.69l55.19,33.17L284.9,38.57,168.67,232a6,6,0,0,1-.73,1.84L61,411.91c31.1,17,74,49.31,115.54,86.85a5.89,5.89,0,0,1,2,4.27,6.13,6.13,0,0,1-.39,2.39,6.33,6.33,0,0,1-1.28,2.05Z" transform="translate(-20 -19.99)"/><path class="cls-4" d="M679.6,95.4,585.46,266l17.69,17.69Z" transform="translate(-20 -19.99)"/><path class="cls-4" d="M648.94,489.22l-312.73,155,11.67,19.39Z" transform="translate(-20 -19.99)"/><path class="cls-4" d="M280.49,130.44l7.4,156.86-19.1-11.47Z" transform="translate(-20 -19.99)"/><path class="cls-5" d="M720.82,459.54l-285.77-18.4a3.29,3.29,0,0,0-1.69.36,3.35,3.35,0,0,0-1.27,1.18,3.3,3.3,0,0,0,0,3.29l36,59.89-95.62,57.42c-15-19.19-31.82-39-50.06-59.17L561.27,273.4l46.38,46.38a3.15,3.15,0,0,0,1.36.78,3.21,3.21,0,0,0,1.57.07,3.33,3.33,0,0,0,1.39-.7,3.38,3.38,0,0,0,.91-1.27L723.55,30.49a3.3,3.3,0,0,0,.07-1.79,3.2,3.2,0,0,0-.87-1.55,3.27,3.27,0,0,0-3.34-.81L431.23,137a3.27,3.27,0,0,0-1.26.91,3.23,3.23,0,0,0-.71,1.39,3.34,3.34,0,0,0,.07,1.57,3.24,3.24,0,0,0,.79,1.35l46.38,46.39-230.82,239c-20-18.21-39.84-35-59.17-50L244,281.81l59.85,36a3.39,3.39,0,0,0,1.65.44,3.36,3.36,0,0,0,1.64-.44,3.3,3.3,0,0,0,1.17-1.26,3.33,3.33,0,0,0,.38-1.67L290.35,29a3.3,3.3,0,0,0-.83-1.73,3.27,3.27,0,0,0-5.08.32L163.14,229.48a2.55,2.55,0,0,0-.39,1.25L54.28,411.52a3.21,3.21,0,0,0-.42,1.23A3.1,3.1,0,0,0,55.53,416c31,16.43,74.51,49,117,87.43L25.94,654.79l69,69L246.7,577.42c38.46,42.46,71,86.05,87.44,117a3.23,3.23,0,0,0,.84,1,3.17,3.17,0,0,0,1.16.58,3.45,3.45,0,0,0,1.28.09,3.34,3.34,0,0,0,1.22-.42L519.16,587.21a2.94,2.94,0,0,0,1.35-.46L722.37,465.46a3.32,3.32,0,0,0,1.16-1.53,3.29,3.29,0,0,0-.87-3.57,3.35,3.35,0,0,0-1.74-.82Z" transform="translate(-20 -19.99)"/><path class="cls-3" d="M95,730a6.15,6.15,0,0,1-2.32-.46,6.05,6.05,0,0,1-2-1.32l-69-69a6,6,0,0,1,0-8.48l142.09-147c-40.56-36.16-81.78-66.83-111.07-82.38A9.1,9.1,0,0,1,49.89,419a9.29,9.29,0,0,1-1.71-3.32,9.22,9.22,0,0,1,1-7.23L157,228.53a10.11,10.11,0,0,1,.92-2.17L279.24,24.5a9.24,9.24,0,0,1,17.16,4.18l18.41,285.77a9.27,9.27,0,0,1-14,8.55l-54.7-32.87L194.54,376c16.63,13.15,33.69,27.61,50.85,43.06L468,188.69l-42.14-42.14a9.24,9.24,0,0,1,3.29-15.19L717.24,20.69a9.17,9.17,0,0,1,9.86,2.2,9.27,9.27,0,0,1,2.58,4.6,9.17,9.17,0,0,1-.38,5.26L618.53,320.83a9.07,9.07,0,0,1-11.14,5.54,9.13,9.13,0,0,1-3.91-2.35L561.2,281.88,330.85,504.48c15.48,17.19,29.94,34.28,43.09,50.88l85.83-51.57-32.87-54.7a9.16,9.16,0,0,1,0-9.57,9.29,9.29,0,0,1,8.51-4.43l285.77,18.4a9.22,9.22,0,0,1,8.43,7,9.24,9.24,0,0,1-4.25,10.12L523.53,591.94a7.61,7.61,0,0,1-2.23,1l-179.64,108a9.29,9.29,0,0,1-13.15-3.65c-15.51-29.29-46-70.54-82.37-111.07L99.24,728.22A6,6,0,0,1,95,730ZM34.46,654.73,95.1,715.37,242.39,573.08a5.78,5.78,0,0,1,2-1.33,5.59,5.59,0,0,1,2.39-.38,6.21,6.21,0,0,1,4.31,2C288.74,615,321,657.69,338,688.94l178-106.86a5.37,5.37,0,0,1,1.81-.72l193.57-116.3L440.11,447.61l33.17,55.19a6.09,6.09,0,0,1-2.11,8.32l-95.58,57.42a6,6,0,0,1-4.23.78,6,6,0,0,1-3.66-2.23c-14.89-19.06-31.63-38.85-49.77-58.77a6.05,6.05,0,0,1,.26-8.41L557.06,269.09a6.09,6.09,0,0,1,8.48,0l43.26,43.23,106.8-278L437.51,141.09l43.26,43.26a6,6,0,0,1,0,8.48L250,431.67a6.07,6.07,0,0,1-8.42.26c-19.72-18.08-39.64-34.81-58.74-49.73a6.07,6.07,0,0,1-1.48-7.89l57.49-95.62a6.08,6.08,0,0,1,3.72-2.76,6.23,6.23,0,0,1,4.6.69l55.19,33.17L284.9,38.57,168.67,232a6,6,0,0,1-.73,1.84L61,411.91c31.1,17,74,49.31,115.54,86.85a5.89,5.89,0,0,1,2,4.27,6.13,6.13,0,0,1-.39,2.39,6.33,6.33,0,0,1-1.28,2.05Z" transform="translate(-20 -19.99)"/><path class="cls-3" d="M679.6,95.4,585.46,266l17.69,17.69Z" transform="translate(-20 -19.99)"/><path class="cls-3" d="M648.94,489.22l-312.73,155,11.67,19.39Z" transform="translate(-20 -19.99)"/><path class="cls-3" d="M280.49,130.44l7.4,156.86-19.1-11.47Z" transform="translate(-20 -19.99)"/></g></svg>